<svg id="Layer_1" data-name="Layer 1" xmlns="http://www.w3.org/2000/svg" viewBox="0 0 641 1130.19"><defs><style>.cls-1{fill:#f8f8f9;stroke:#231f20;stroke-miterlimit:10;}.cls-2{fill:#939598;}.cls-3{fill:#fff;}.cls-4{fill:#414042;}</style></defs><title>Artboard 71 copy</title><rect class="cls-1" x="0.5" y="0.5" width="640" height="1129.19"/><rect class="cls-2" x="1.82" y="-1.37" width="634.76" height="146.28"/><path class="cls-3" d="M64.35,116.24H61.72c-2.2,0-3.61-1.89-4-3.76L57,109.91c-.43-.16-.85-.34-1.27-.53l-2.35,1.5a4.94,4.94,0,0,1-2.73.83,4,4,0,0,1-2.88-1.14l-1.86-1.86c-1.55-1.55-1.22-3.89-.2-5.51l1.51-2.52c-.12-.27-.23-.53-.33-.8l-2.67-.67c-1.84-.42-3.73-1.84-3.73-4V92.53a4.5,4.5,0,0,1,3.8-4.2l2.53-.56c.12-.31.25-.62.39-.94l-1.52-2.54c-1-1.6-1.34-3.94.22-5.49l1.86-1.86a4,4,0,0,1,2.88-1.14,5,5,0,0,1,2.78.86l2.3,1.46c.41-.19.84-.37,1.26-.53L57.66,75c.43-1.84,1.84-3.73,4-3.73h2.63A4.5,4.5,0,0,1,68.53,75l.57,2.58c.36.14.72.29,1.07.45l2.28-1.45a4.93,4.93,0,0,1,2.73-.83,4,4,0,0,1,2.88,1.14l1.86,1.86c1.55,1.55,1.22,3.89.2,5.51l-1.41,2.35c.17.38.33.74.46,1.11l2.59.57a4.48,4.48,0,0,1,3.75,4.19v2.63c0,2.2-1.89,3.61-3.76,4l-2.64.66q-.18.48-.4,1l1.43,2.38c1,1.6,1.33,3.94-.22,5.49l-1.86,1.86a4,4,0,0,1-2.88,1.14,5,5,0,0,1-2.78-.86l-2.23-1.43c-.35.16-.7.31-1,.44l-.59,2.64A4.48,4.48,0,0,1,64.35,116.24ZM55.6,106l.75.39a14.15,14.15,0,0,0,2.34,1l.77.24,1,4.15c.15.63.59,1.53,1.23,1.53h2.63c.63,0,1.23-.75,1.35-1.42l1-4.29.79-.26a14.06,14.06,0,0,0,2.16-.91l.74-.38L74,108.43a2.12,2.12,0,0,0,1.17.37,1.16,1.16,0,0,0,.83-.29l1.87-1.87c.45-.45.13-1.4-.21-1.93L75.42,101l.36-.72a14.49,14.49,0,0,0,.86-2l.25-.76,4.19-1c.63-.14,1.53-.58,1.53-1.23V92.53c0-.63-.75-1.23-1.42-1.35l-4.25-.94-.25-.8a13.86,13.86,0,0,0-.91-2.2l-.37-.72,2.24-3.73c.34-.55.67-1.5.22-2L76,79a1.15,1.15,0,0,0-.83-.29,2.09,2.09,0,0,0-1.13.34L70.34,81.4,69.6,81a14.26,14.26,0,0,0-2.18-.92l-.79-.25-.94-4.23c-.13-.73-.74-1.48-1.36-1.48H61.7c-.64,0-1.08.9-1.22,1.51l-1,4.19-.77.24a14.51,14.51,0,0,0-2.33,1l-.74.39-3.75-2.38a2.14,2.14,0,0,0-1.17-.37,1.17,1.17,0,0,0-.83.29L48,80.84c-.45.45-.13,1.4.2,1.93l2.34,3.91-.35.71a14.13,14.13,0,0,0-.84,2.06l-.25.8-4.19.93c-.73.13-1.48.73-1.48,1.36v2.63c0,.64.9,1.08,1.51,1.22l4.23,1.06.25.76a13.55,13.55,0,0,0,.79,1.9l.35.71-2.33,3.89c-.34.55-.67,1.5-.22,2l1.86,1.86a1.16,1.16,0,0,0,.83.29,2.08,2.08,0,0,0,1.13-.34Z"/><path class="cls-3" d="M63,88.2a5.53,5.53,0,1,1-5.54,5.53A5.54,5.54,0,0,1,63,88.2m0-2.9a8.43,8.43,0,1,0,8.44,8.43A8.45,8.45,0,0,0,63,85.31Z"/><path class="cls-4" d="M55.7,229.92H50.3c-2,0-3.24-1.12-3.24-3.08V206a3,3,0,0,1,3.36-3.32H55.7c8.2,0,12.6,5.52,12.6,13C68.29,224,63.9,229.92,55.7,229.92Zm.2-23.68H51.42a.62.62,0,0,0-.64.68V225.8a.54.54,0,0,0,.56.6h4.24c6.16,0,9-4.44,9-10.48C64.57,210.33,61.81,206.37,55.9,206.25Z"/><path class="cls-4" d="M74.78,205.45a2.14,2.14,0,0,1-2.12-2.16,2.14,2.14,0,1,1,2.12,2.16Zm0,24.72c-1.12,0-1.76-.44-1.76-1.6V210.85c0-1.2.68-1.56,1.8-1.56s1.84.36,1.84,1.56v17.72C76.62,229.72,75.9,230.16,74.74,230.16Z"/><path class="cls-4" d="M88.26,230.32a10.75,10.75,0,0,1-6.28-1.8,2.2,2.2,0,0,1-1-1.72,1.89,1.89,0,0,1,1.6-1.84,2.31,2.31,0,0,1,1.32.56A8.64,8.64,0,0,0,88.34,227c2.2,0,3.76-.88,3.76-2.64s-1.56-2.24-4-2.8c-3.92-.88-6.88-2.16-6.88-6.16s3.2-6.24,7.56-6.24a9.36,9.36,0,0,1,5.44,1.56c.84.6,1.2,1.16,1.2,1.72a1.8,1.8,0,0,1-1.64,1.84,2.52,2.52,0,0,1-1.44-.56,6.16,6.16,0,0,0-3.8-1.2c-2.56,0-3.64,1.36-3.64,2.6,0,2.2,2.24,2.68,4.88,3.24,3.4.76,6,2,6,5.8C95.77,227.68,92.78,230.32,88.26,230.32Z"/><path class="cls-4" d="M115.09,230.16c-1.16,0-1.88-.4-1.88-1.64V217.16c0-2.4-1.08-4.6-4.08-4.6s-5.2,2.32-5.2,6.24v9.72c0,1.2-.72,1.64-1.84,1.64s-1.8-.44-1.8-1.64v-27c0-1.2.68-1.6,1.84-1.6s1.8.4,1.8,1.6v10.92a6.93,6.93,0,0,1,6.08-3.32c4.52,0,6.88,3.08,6.88,7.4v12C116.89,229.72,116.21,230.16,115.09,230.16Z"/><path class="cls-4" d="M146.81,217.76a74.8,74.8,0,0,1-4.4,11.48,1.56,1.56,0,0,1-1.56.92h-.36a1.64,1.64,0,0,1-1.72-1c-1.52-3-3.32-9.16-4.36-14-1.16,4.92-3,10.88-4.72,14.08a1.52,1.52,0,0,1-1.52.92h-.28c-1,0-1.52-.2-1.88-1a57,57,0,0,1-4.12-11.56,42.07,42.07,0,0,1-1.44-7c0-1,.88-1.48,2-1.48s1.4.4,1.56,1.36c.8,4.72,2.48,11.88,4.12,15.72a85.34,85.34,0,0,0,4.48-15.68,1.68,1.68,0,0,1,1.88-1.4,1.79,1.79,0,0,1,2,1.44,88,88,0,0,0,4.08,15.72,84.43,84.43,0,0,0,4.36-15.76c.16-1,.52-1.4,1.6-1.4s1.92.52,1.92,1.44A33.58,33.58,0,0,1,146.81,217.76Z"/><path class="cls-4" d="M166.33,230.16c-1.08,0-1.8-.36-1.8-1.52v-1.48a6.17,6.17,0,0,1-5.76,3.16c-5.24,0-8.24-4.36-8.24-10.64,0-6,3-10.56,8.6-10.56a6,6,0,0,1,5.4,2.84v-1.08c0-1.2.68-1.6,1.84-1.6s1.8.4,1.8,1.6v17.68C168.17,229.8,167.53,230.16,166.33,230.16Zm-1.8-12.2c0-3-1.84-5.48-5-5.48-3.76,0-5.36,3.44-5.36,7.2,0,4.08,1.6,7.28,5.36,7.28,3.24,0,5-2.56,5-5.48Z"/><path class="cls-4" d="M179.85,230.32a10.75,10.75,0,0,1-6.28-1.8,2.2,2.2,0,0,1-1-1.72,1.89,1.89,0,0,1,1.6-1.84,2.31,2.31,0,0,1,1.32.56,8.64,8.64,0,0,0,4.48,1.44c2.2,0,3.76-.88,3.76-2.64s-1.56-2.24-4-2.8c-3.92-.88-6.88-2.16-6.88-6.16s3.2-6.24,7.56-6.24a9.36,9.36,0,0,1,5.44,1.56c.84.6,1.2,1.16,1.2,1.72a1.8,1.8,0,0,1-1.64,1.84,2.52,2.52,0,0,1-1.44-.56,6.16,6.16,0,0,0-3.8-1.2c-2.56,0-3.64,1.36-3.64,2.6,0,2.2,2.24,2.68,4.88,3.24,3.4.76,6,2,6,5.8C187.37,227.68,184.37,230.32,179.85,230.32Z"/><path class="cls-4" d="M206.69,230.16c-1.16,0-1.88-.4-1.88-1.64V217.16c0-2.4-1.08-4.6-4.08-4.6s-5.2,2.32-5.2,6.24v9.72c0,1.2-.72,1.64-1.84,1.64s-1.8-.44-1.8-1.64v-27c0-1.2.68-1.6,1.84-1.6s1.8.4,1.8,1.6v10.92a6.93,6.93,0,0,1,6.08-3.32c4.52,0,6.88,3.08,6.88,7.4v12C208.49,229.72,207.81,230.16,206.69,230.16Z"/><path class="cls-4" d="M228.13,221H216.61c.32,3.76,2.56,5.92,5.76,5.92a7.09,7.09,0,0,0,4-1.16,3.09,3.09,0,0,1,1.52-.64,1.84,1.84,0,0,1,1.64,1.72c0,.68-.32,1.2-1.6,2a10.36,10.36,0,0,1-5.64,1.48c-6,0-9.44-4.28-9.44-10.44,0-6,3.12-10.76,9.24-10.76,5.2,0,8.32,3.76,8.32,9.2C230.41,219.8,229.93,221,228.13,221Zm-11.44-3.24h10c-.08-2.8-1.6-5.32-4.68-5.32S217,214.85,216.69,217.81Z"/><path class="cls-4" d="M245,212.93a2.58,2.58,0,0,1-.8-.12,4.61,4.61,0,0,0-1.36-.24c-2.6,0-4.48,2.08-4.48,5.84v10.12c0,1.24-.64,1.64-1.84,1.64-1,0-1.8-.4-1.8-1.64V210.85c0-1.2.68-1.56,1.84-1.56s1.8.36,1.8,1.56v1.24a5.26,5.26,0,0,1,4.88-3,4.93,4.93,0,0,1,2.24.44,1.45,1.45,0,0,1,.88,1.36C246.33,212.13,245.65,212.93,245,212.93Z"/><path class="cls-4" d="M60.65,310.25h-9.2a.7.7,0,0,0-.68.76v7.24H59c1.44,0,1.92.52,1.92,1.76s-.48,1.76-1.92,1.76h-8.2v10.72c0,1.16-.64,1.68-1.84,1.68s-1.88-.48-1.88-1.68V310.17c0-2,1-3.44,3.48-3.44H60.65c1.48,0,1.92.48,1.92,1.72S62.18,310.25,60.65,310.25Z"/><path class="cls-4" d="M76.65,316.93a2.57,2.57,0,0,1-.8-.12,4.62,4.62,0,0,0-1.36-.24c-2.6,0-4.48,2.08-4.48,5.84v10.12c0,1.24-.64,1.64-1.84,1.64-1,0-1.8-.4-1.8-1.64V314.85c0-1.2.68-1.56,1.84-1.56s1.8.36,1.8,1.56v1.24a5.26,5.26,0,0,1,4.88-3,4.93,4.93,0,0,1,2.24.44,1.46,1.46,0,0,1,.88,1.36C78,316.13,77.34,316.93,76.65,316.93Z"/><path class="cls-4" d="M83,309.45a2.14,2.14,0,0,1-2.12-2.16A2.14,2.14,0,1,1,83,309.45Zm0,24.72c-1.12,0-1.76-.44-1.76-1.6V314.85c0-1.2.68-1.56,1.8-1.56s1.84.36,1.84,1.56v17.72C84.82,333.72,84.1,334.16,82.94,334.16Z"/><path class="cls-4" d="M105.09,334.16c-1,0-1.88-.36-1.88-1.52v-1.28a6.18,6.18,0,0,1-5.6,3c-5.12,0-8.4-4-8.4-10.56,0-6.36,3.32-10.64,8.64-10.64a6,6,0,0,1,5.36,2.84V305.53c0-1.2.72-1.6,1.84-1.6s1.8.4,1.8,1.6v27C106.85,333.8,106.21,334.16,105.09,334.16ZM103.21,322c0-3-1.84-5.48-5-5.48-3.44,0-5.36,3.12-5.36,7.28,0,4.52,2,7.2,5.36,7.2s5-2.64,5-5.48Z"/><path class="cls-4" d="M128.93,332.08c0,6.44-3.2,10.28-9.48,10.28a10.55,10.55,0,0,1-5.72-1.52c-.84-.6-1.16-1.12-1.16-1.68a1.81,1.81,0,0,1,1.56-1.88,3.64,3.64,0,0,1,1.56.56,7.94,7.94,0,0,0,3.92,1.16c4.72,0,5.64-3.2,5.68-7.16v-.68a6.14,6.14,0,0,1-5.72,3.16c-4.88,0-8.28-3.92-8.28-10.64,0-6.44,3.32-10.56,8.64-10.56a6.08,6.08,0,0,1,5.36,2.84v-1.08c0-1.2.72-1.6,1.84-1.6s1.8.44,1.8,1.6ZM125.29,322c0-3-1.84-5.48-5-5.48-3.44,0-5.36,2.92-5.36,7.2,0,4.52,2,7.28,5.36,7.28s5-2.6,5-5.48Z"/><path class="cls-4" d="M148.69,325H137.18c.32,3.76,2.56,5.92,5.76,5.92a7.09,7.09,0,0,0,4-1.16,3.09,3.09,0,0,1,1.52-.64,1.84,1.84,0,0,1,1.64,1.72c0,.68-.32,1.2-1.6,2a10.37,10.37,0,0,1-5.64,1.48c-6,0-9.44-4.28-9.44-10.44,0-6,3.12-10.76,9.24-10.76,5.2,0,8.32,3.76,8.32,9.2C151,323.8,150.49,325,148.69,325Zm-11.44-3.24h10c-.08-2.8-1.6-5.32-4.68-5.32S137.57,318.85,137.26,321.81Z"/><path class="cls-4" d="M57.38,434.32c-8.16,0-11.92-6.92-11.92-14,0-7.48,4-14,11.92-14,8.08,0,11.8,6.8,11.8,14S65.49,434.32,57.38,434.32Zm0-24.52c-5.76,0-8.2,5.48-8.2,10.48,0,5.16,2.52,10.56,8.2,10.56s8.08-5.56,8.08-10.56S63.1,409.81,57.38,409.81Z"/><path class="cls-4" d="M89,419a70.36,70.36,0,0,1-6.48,14.2,1.81,1.81,0,0,1-1.68.92h-.36a1.72,1.72,0,0,1-1.8-1,66.47,66.47,0,0,1-5.8-14.72,20,20,0,0,1-.72-3.64c0-1,1-1.52,2-1.52s1.44.48,1.6,1.36c.4,2,.84,3.92,1.44,6a73.94,73.94,0,0,0,3.6,9.64,78.48,78.48,0,0,0,4-9.76c.52-1.52,1.16-4,1.64-6a1.38,1.38,0,0,1,1.56-1.2c1,0,2,.48,2,1.44A16.81,16.81,0,0,1,89,419Z"/><path class="cls-4" d="M107.52,425H96c.32,3.76,2.56,5.92,5.76,5.92a7.09,7.09,0,0,0,4-1.16,3.1,3.1,0,0,1,1.52-.64,1.83,1.83,0,0,1,1.64,1.72c0,.68-.32,1.2-1.6,2a10.37,10.37,0,0,1-5.64,1.48c-6,0-9.44-4.28-9.44-10.44,0-6,3.12-10.76,9.24-10.76,5.2,0,8.32,3.76,8.32,9.2C109.8,423.8,109.32,425,107.52,425ZM96.08,421.8h10c-.08-2.8-1.6-5.32-4.68-5.32S96.4,418.84,96.08,421.8Z"/><path class="cls-4" d="M128.88,434.16c-1.16,0-1.88-.4-1.88-1.6V421.28c0-2.44-1-4.72-4.12-4.72-2.84,0-5.16,1.92-5.16,6.24v9.76c0,1.16-.72,1.6-1.84,1.6s-1.8-.44-1.8-1.6V414.85c0-1.16.64-1.56,1.8-1.56s1.84.4,1.84,1.56v1.64a6.82,6.82,0,0,1,6.08-3.36c4.52,0,6.88,3.08,6.88,7.44v12C130.68,433.72,130,434.16,128.88,434.16Z"/><path class="cls-4" d="M279.28,208.46a1.33,1.33,0,0,1,.87.32l16.21,14a1.33,1.33,0,0,1,.14,1.87l-2.77,3.22a1.32,1.32,0,0,1-.91.46h-.1a1.33,1.33,0,0,1-.87-.32l-12.57-10.85L266.71,228a1.33,1.33,0,0,1-.87.32h-.1a1.32,1.32,0,0,1-.91-.46l-2.78-3.22a1.32,1.32,0,0,1,.14-1.87l16.21-14A1.33,1.33,0,0,1,279.28,208.46Z"/><path class="cls-3" d="M528.38,96.93a1.43,1.43,0,0,1-1,.42h-13.1v13.1a1.44,1.44,0,0,1-1.43,1.43H510.6a1.44,1.44,0,0,1-1.43-1.44V97.35H496.07a1.44,1.44,0,0,1-1.43-1.44V93.67a1.44,1.44,0,0,1,1.43-1.43h13.09V79.15a1.44,1.44,0,0,1,1.43-1.43h2.24a1.44,1.44,0,0,1,1.43,1.43V92.24h13.1a1.44,1.44,0,0,1,1.43,1.44v2.24A1.43,1.43,0,0,1,528.38,96.93Z"/></svg>