<svg xmlns="http://www.w3.org/2000/svg" viewBox="0 0 35.08 19.87"><defs><style>.cls-1{fill:#414042;}</style></defs><title>arrow</title><g id="Layer_2" data-name="Layer 2"><g id="Layer_1-2" data-name="Layer 1"><path class="cls-1" d="M17.54,19.87a1.33,1.33,0,0,1-.87-.32L.46,5.55A1.32,1.32,0,0,1,.32,3.68L3.1.46A1.33,1.33,0,0,1,4,0h.1A1.33,1.33,0,0,1,5,.32L17.54,11.17,30.11.32A1.33,1.33,0,0,1,31,0h.1A1.33,1.33,0,0,1,32,.46l2.78,3.22a1.32,1.32,0,0,1-.14,1.87l-16.21,14A1.33,1.33,0,0,1,17.54,19.87Z"/></g></g></svg>