<svg xmlns="http://www.w3.org/2000/svg" viewBox="0 0 116.67 92"><defs><style>.cls-1{fill:#fff;stroke:#fff;stroke-miterlimit:10;stroke-width:0.5px;}</style></defs><title>ARROWWW</title><g id="Layer_2" data-name="Layer 2"><path class="cls-1" d="M58.62,66.78A2.54,2.54,0,0,1,57,66.16L25.9,39.35a2.54,2.54,0,0,1-.26-3.59l5.31-6.16a2.55,2.55,0,0,1,1.74-.88h.19a2.54,2.54,0,0,1,1.66.62L58.62,50.12,82.68,29.34a2.55,2.55,0,0,1,1.66-.62h.19a2.55,2.55,0,0,1,1.75.88l5.31,6.17a2.54,2.54,0,0,1-.26,3.59l-31,26.81A2.54,2.54,0,0,1,58.62,66.78Z"/></g></svg>