<svg xmlns="http://www.w3.org/2000/svg" viewBox="0 0 103.92 38.43"><defs><style>.cls-1{fill:#414042;}</style></defs><title>Asset 35</title><g id="Layer_2" data-name="Layer 2"><g id="Layer_1-2" data-name="Layer 1"><path class="cls-1" d="M17,10H7.8a.7.7,0,0,0-.68.76V18h8.2c1.44,0,1.92.52,1.92,1.76s-.48,1.76-1.92,1.76H7.12V32.28c0,1.16-.64,1.68-1.84,1.68S3.4,33.48,3.4,32.28V10c0-2,1-3.44,3.48-3.44H17c1.48,0,1.92.48,1.92,1.72S18.52,10,17,10Z" transform="translate(-3.4 -3.72)"/><path class="cls-1" d="M33,16.72a2.58,2.58,0,0,1-.8-.12,4.61,4.61,0,0,0-1.36-.24c-2.6,0-4.48,2.08-4.48,5.84V32.32c0,1.24-.64,1.64-1.84,1.64-1,0-1.8-.4-1.8-1.64V14.64c0-1.2.68-1.56,1.84-1.56s1.8.36,1.8,1.56v1.24a5.27,5.27,0,0,1,4.88-3,4.94,4.94,0,0,1,2.24.44,1.46,1.46,0,0,1,.88,1.36C34.36,15.92,33.68,16.72,33,16.72Z" transform="translate(-3.4 -3.72)"/><path class="cls-1" d="M39.32,9.24A2.14,2.14,0,0,1,37.2,7.08a2.14,2.14,0,1,1,2.12,2.16Zm0,24.72c-1.12,0-1.76-.44-1.76-1.6V14.64c0-1.2.68-1.56,1.8-1.56s1.84.36,1.84,1.56V32.36C41.16,33.52,40.44,34,39.28,34Z" transform="translate(-3.4 -3.72)"/><path class="cls-1" d="M61.44,34c-1,0-1.88-.36-1.88-1.52V31.16a6.18,6.18,0,0,1-5.6,3c-5.12,0-8.4-4-8.4-10.56,0-6.36,3.32-10.64,8.64-10.64a6,6,0,0,1,5.36,2.84V5.32c0-1.2.72-1.6,1.84-1.6s1.8.4,1.8,1.6v27C63.2,33.6,62.56,34,61.44,34Zm-1.88-12.2c0-3-1.84-5.48-5-5.48-3.44,0-5.36,3.12-5.36,7.28,0,4.52,2,7.2,5.36,7.2s5-2.64,5-5.48Z" transform="translate(-3.4 -3.72)"/><path class="cls-1" d="M85.28,31.88c0,6.44-3.2,10.28-9.48,10.28a10.55,10.55,0,0,1-5.72-1.52c-.84-.6-1.16-1.12-1.16-1.68a1.81,1.81,0,0,1,1.56-1.88,3.64,3.64,0,0,1,1.56.56A7.94,7.94,0,0,0,76,38.8c4.72,0,5.64-3.2,5.68-7.16V31a6.14,6.14,0,0,1-5.72,3.16c-4.88,0-8.28-3.92-8.28-10.64,0-6.44,3.32-10.56,8.64-10.56a6.08,6.08,0,0,1,5.36,2.84V14.68c0-1.2.72-1.6,1.84-1.6s1.8.44,1.8,1.6ZM81.64,21.76c0-3-1.84-5.48-5-5.48-3.44,0-5.36,2.92-5.36,7.2,0,4.52,2,7.28,5.36,7.28s5-2.6,5-5.48Z" transform="translate(-3.4 -3.72)"/><path class="cls-1" d="M105,24.84H93.52c.32,3.76,2.56,5.92,5.76,5.92a7.08,7.08,0,0,0,4-1.16A3.1,3.1,0,0,1,104.8,29a1.84,1.84,0,0,1,1.64,1.72c0,.68-.32,1.2-1.6,2a10.36,10.36,0,0,1-5.64,1.48c-6,0-9.44-4.28-9.44-10.44,0-6,3.12-10.76,9.24-10.76,5.2,0,8.32,3.76,8.32,9.2C107.32,23.6,106.83,24.84,105,24.84ZM93.6,21.6h10c-.08-2.8-1.6-5.32-4.68-5.32S93.92,18.64,93.6,21.6Z" transform="translate(-3.4 -3.72)"/></g></g></svg>