<svg id="Layer_1" data-name="Layer 1" xmlns="http://www.w3.org/2000/svg" viewBox="0 0 640 1136"><defs><style>.cls-1{fill:#939598;}.cls-2{fill:#fff;}</style></defs><title>Artboard 9 copy 30</title><rect class="cls-1" y="-1.83" width="640" height="146.28"/><path class="cls-2" d="M63.85,115.78H61.22c-2.2,0-3.61-1.89-4-3.76l-.65-2.58c-.43-.16-.85-.34-1.27-.53l-2.35,1.5a4.94,4.94,0,0,1-2.73.83,4,4,0,0,1-2.88-1.14l-1.86-1.86c-1.55-1.55-1.22-3.89-.2-5.51l1.51-2.52c-.12-.27-.23-.53-.33-.8l-2.67-.67C41.9,98.31,40,96.9,40,94.7V92.07a4.5,4.5,0,0,1,3.8-4.2l2.53-.56c.12-.31.25-.62.39-.94l-1.52-2.54c-1-1.6-1.34-3.94.22-5.49l1.86-1.86a4,4,0,0,1,2.88-1.14,5,5,0,0,1,2.78.86l2.3,1.46c.41-.19.84-.37,1.26-.53l.65-2.62c.43-1.84,1.84-3.73,4-3.73h2.63A4.5,4.5,0,0,1,68,74.58l.57,2.58c.36.14.72.29,1.07.45L72,76.16a4.93,4.93,0,0,1,2.73-.83,4,4,0,0,1,2.88,1.14l1.86,1.86c1.55,1.55,1.22,3.89.2,5.51l-1.41,2.35c.17.38.33.74.46,1.11l2.59.57A4.48,4.48,0,0,1,85,92.07V94.7c0,2.2-1.89,3.61-3.76,4l-2.64.66q-.18.48-.4,1l1.43,2.38c1,1.6,1.33,3.94-.22,5.49l-1.86,1.86a4,4,0,0,1-2.88,1.14,5,5,0,0,1-2.78-.86L69.67,109c-.35.16-.7.31-1,.44L68,112A4.48,4.48,0,0,1,63.85,115.78Zm-8.75-10.2.75.39a14.15,14.15,0,0,0,2.34,1l.77.24,1,4.15c.15.63.59,1.53,1.23,1.53h2.63c.63,0,1.23-.75,1.35-1.42l1-4.29.79-.26A14.06,14.06,0,0,0,69.1,106l.74-.38L73.51,108a2.12,2.12,0,0,0,1.17.37,1.16,1.16,0,0,0,.83-.29l1.87-1.87c.45-.45.13-1.4-.21-1.93l-2.26-3.76.36-.72a14.49,14.49,0,0,0,.86-2l.25-.76,4.19-1c.63-.14,1.53-.58,1.53-1.23V92.07c0-.63-.75-1.23-1.42-1.35l-4.25-.94-.25-.8a13.86,13.86,0,0,0-.91-2.2l-.37-.72,2.24-3.73c.34-.55.67-1.5.22-2l-1.86-1.86a1.15,1.15,0,0,0-.83-.29,2.09,2.09,0,0,0-1.13.34l-3.71,2.37-.74-.39a14.26,14.26,0,0,0-2.18-.92l-.79-.25-.94-4.23c-.13-.73-.74-1.48-1.36-1.48H61.2c-.64,0-1.08.9-1.22,1.51l-1,4.19-.77.24a14.51,14.51,0,0,0-2.33,1l-.74.39L51.34,78.6a2.14,2.14,0,0,0-1.17-.37,1.17,1.17,0,0,0-.83.29l-1.86,1.86c-.45.45-.13,1.4.2,1.93L50,86.21l-.35.71A14.13,14.13,0,0,0,48.83,89l-.25.8-4.19.93c-.73.13-1.48.73-1.48,1.36V94.7c0,.64.9,1.08,1.51,1.22L48.64,97l.25.76a13.55,13.55,0,0,0,.79,1.9l.35.71-2.33,3.89c-.34.55-.67,1.5-.22,2L49.34,108a1.16,1.16,0,0,0,.83.29A2.08,2.08,0,0,0,51.3,108Z"/><path class="cls-2" d="M62.53,87.74A5.53,5.53,0,1,1,57,93.27a5.54,5.54,0,0,1,5.54-5.53m0-2.9A8.43,8.43,0,1,0,71,93.27a8.45,8.45,0,0,0-8.44-8.43Z"/><path class="cls-2" d="M527,96.47a1.43,1.43,0,0,1-1,.42h-13.1V110a1.44,1.44,0,0,1-1.43,1.43h-2.24a1.44,1.44,0,0,1-1.43-1.44V96.89H494.68a1.44,1.44,0,0,1-1.43-1.44V93.21a1.44,1.44,0,0,1,1.43-1.43h13.09V78.68a1.44,1.44,0,0,1,1.43-1.43h2.24a1.44,1.44,0,0,1,1.43,1.43V91.78H526a1.44,1.44,0,0,1,1.43,1.44v2.24A1.43,1.43,0,0,1,527,96.47Z"/></svg>