<svg id="Layer_1" data-name="Layer 1" xmlns="http://www.w3.org/2000/svg" viewBox="0 0 640 1136"><defs><style>.cls-1{fill:#f8f8f9;stroke:#808285;stroke-miterlimit:10;}.cls-2{fill:#939598;}.cls-3{fill:#fff;}.cls-4{fill:#414042;}</style></defs><title>Artboard 9 copy 29</title><rect class="cls-1" y="0.04" width="640" height="1135.96"/><rect class="cls-2" y="-1.83" width="636.08" height="146.28"/><path class="cls-3" d="M63.85,115.78H61.22c-2.2,0-3.61-1.89-4-3.76l-.65-2.58c-.43-.16-.85-.34-1.27-.53l-2.35,1.5a4.94,4.94,0,0,1-2.73.83,4,4,0,0,1-2.88-1.14l-1.86-1.86c-1.55-1.55-1.22-3.89-.2-5.51l1.51-2.52c-.12-.27-.23-.53-.33-.8l-2.67-.67C41.9,98.31,40,96.9,40,94.7V92.07a4.5,4.5,0,0,1,3.8-4.2l2.53-.56c.12-.31.25-.62.39-.94l-1.52-2.54c-1-1.6-1.34-3.94.22-5.49l1.86-1.86a4,4,0,0,1,2.88-1.14,5,5,0,0,1,2.78.86l2.3,1.46c.41-.19.84-.37,1.26-.53l.65-2.62c.43-1.84,1.84-3.73,4-3.73h2.63A4.5,4.5,0,0,1,68,74.58l.57,2.58c.36.14.72.29,1.07.45L72,76.16a4.93,4.93,0,0,1,2.73-.83,4,4,0,0,1,2.88,1.14l1.86,1.86c1.55,1.55,1.22,3.89.2,5.51l-1.41,2.35c.17.38.33.74.46,1.11l2.59.57A4.48,4.48,0,0,1,85,92.07V94.7c0,2.2-1.89,3.61-3.76,4l-2.64.66q-.18.48-.4,1l1.43,2.38c1,1.6,1.33,3.94-.22,5.49l-1.86,1.86a4,4,0,0,1-2.88,1.14,5,5,0,0,1-2.78-.86L69.67,109c-.35.16-.7.31-1,.44L68,112A4.48,4.48,0,0,1,63.85,115.78Zm-8.75-10.2.75.39a14.15,14.15,0,0,0,2.34,1l.77.24,1,4.15c.15.63.59,1.53,1.23,1.53h2.63c.63,0,1.23-.75,1.35-1.42l1-4.29.79-.26A14.06,14.06,0,0,0,69.1,106l.74-.38L73.51,108a2.12,2.12,0,0,0,1.17.37,1.16,1.16,0,0,0,.83-.29l1.87-1.87c.45-.45.13-1.4-.21-1.93l-2.26-3.76.36-.72a14.49,14.49,0,0,0,.86-2l.25-.76,4.19-1c.63-.14,1.53-.58,1.53-1.23V92.07c0-.63-.75-1.23-1.42-1.35l-4.25-.94-.25-.8a13.86,13.86,0,0,0-.91-2.2l-.37-.72,2.24-3.73c.34-.55.67-1.5.22-2l-1.86-1.86a1.15,1.15,0,0,0-.83-.29,2.09,2.09,0,0,0-1.13.34l-3.71,2.37-.74-.39a14.26,14.26,0,0,0-2.18-.92l-.79-.25-.94-4.23c-.13-.73-.74-1.48-1.36-1.48H61.2c-.64,0-1.08.9-1.22,1.51l-1,4.19-.77.24a14.51,14.51,0,0,0-2.33,1l-.74.39L51.34,78.6a2.14,2.14,0,0,0-1.17-.37,1.17,1.17,0,0,0-.83.29l-1.86,1.86c-.45.45-.13,1.4.2,1.93L50,86.21l-.35.71A14.13,14.13,0,0,0,48.83,89l-.25.8-4.19.93c-.73.13-1.48.73-1.48,1.36V94.7c0,.64.9,1.08,1.51,1.22L48.64,97l.25.76a13.55,13.55,0,0,0,.79,1.9l.35.71-2.33,3.89c-.34.55-.67,1.5-.22,2L49.34,108a1.16,1.16,0,0,0,.83.29A2.08,2.08,0,0,0,51.3,108Z"/><path class="cls-3" d="M62.53,87.74A5.53,5.53,0,1,1,57,93.27a5.54,5.54,0,0,1,5.54-5.53m0-2.9A8.43,8.43,0,1,0,71,93.27a8.45,8.45,0,0,0-8.44-8.43Z"/><path class="cls-4" d="M65.87,359.54c-.68,0-1.06-.38-1.06-1.18V336.14L57.36,350a1.53,1.53,0,0,1-1.41,1,1.47,1.47,0,0,1-1.44-1s-6.23-11.4-7.41-13.87v22.23c0,.8-.38,1.18-1.1,1.18s-1.14-.38-1.14-1.18V335.53a2,2,0,0,1,3.76-1l7.33,13.6,7.33-13.6a2,2,0,0,1,3.76,1v22.83A1,1,0,0,1,65.87,359.54Z"/><path class="cls-4" d="M86.54,357.34a8.21,8.21,0,0,1-11.74,0,10.56,10.56,0,0,1-2.62-7.6c0-3.34.91-6,2.7-7.79a8,8,0,0,1,5.78-2.28,7.91,7.91,0,0,1,5.78,2.28c1.82,1.79,2.74,4.45,2.74,7.79A10.55,10.55,0,0,1,86.54,357.34Zm-1.67-13.68a5.92,5.92,0,0,0-8.4,0c-1.33,1.37-1.94,3.38-1.94,6.08s.57,4.52,1.9,5.93a5.7,5.7,0,0,0,4.22,1.9,5.84,5.84,0,0,0,4.25-1.9,8.36,8.36,0,0,0,1.9-5.93C86.8,347,86.16,345,84.87,343.66Z"/><path class="cls-4" d="M107.67,359.54a1.06,1.06,0,0,1-1.22-1.18V347.19c0-2.32-.72-5.28-4.6-5.28-3.23,0-5.81,2.36-5.81,6.76v9.69a1.18,1.18,0,1,1-2.36,0V341.11a1.18,1.18,0,0,1,2.36,0v2a6.91,6.91,0,0,1,6.12-3.46c4.9,0,6.65,3.27,6.65,6.88v11.82C108.81,359.16,108.46,359.54,107.67,359.54Z"/><path class="cls-4" d="M115.53,335.26a1.6,1.6,0,0,1,0-3.19,1.58,1.58,0,0,1,1.6,1.6A1.56,1.56,0,0,1,115.53,335.26Zm0,24.28c-.76,0-1.14-.38-1.14-1.18V341.07a1,1,0,0,1,1.18-1.14c.8,0,1.18.38,1.18,1.14v17.29A1.06,1.06,0,0,1,115.49,359.54Z"/><path class="cls-4" d="M129,342.21h-3.23V354.3c0,1.6.34,3.27,2.24,3.27a3.46,3.46,0,0,0,1.41-.3,2.47,2.47,0,0,1,.84-.3,1.08,1.08,0,0,1,.95,1.1,1.23,1.23,0,0,1-.57,1,4.55,4.55,0,0,1-2.7.8c-2.77,0-4.52-1.29-4.52-5.32V342.21h-2.13c-.8,0-1.18-.3-1.18-1.06s.38-1.1,1.18-1.1h2.13V335.6a1,1,0,0,1,1.18-1.14c.8,0,1.18.38,1.18,1.14V340H129c.8,0,1.18.3,1.18,1.1S129.78,342.21,129,342.21Z"/><path class="cls-4" d="M147.64,357.34a8.21,8.21,0,0,1-11.74,0,10.56,10.56,0,0,1-2.62-7.6c0-3.34.91-6,2.7-7.79a8,8,0,0,1,5.78-2.28,7.91,7.91,0,0,1,5.78,2.28c1.82,1.79,2.74,4.45,2.74,7.79A10.55,10.55,0,0,1,147.64,357.34ZM146,343.66a5.92,5.92,0,0,0-8.4,0c-1.33,1.37-1.94,3.38-1.94,6.08s.57,4.52,1.9,5.93a5.7,5.7,0,0,0,4.22,1.9,5.84,5.84,0,0,0,4.25-1.9,8.36,8.36,0,0,0,1.9-5.93C147.91,347,147.26,345,146,343.66Z"/><path class="cls-4" d="M163.72,342.21a2.16,2.16,0,0,1-.57-.11,5,5,0,0,0-1.37-.19c-2.66,0-4.64,2-4.64,5.39v11.06a1,1,0,0,1-1.18,1.18,1,1,0,0,1-1.18-1.18V341.07a1,1,0,0,1,1.18-1.14c.8,0,1.18.38,1.18,1.14v1.33a5.12,5.12,0,0,1,4.67-2.74c1.82,0,2.74.57,2.74,1.33S164.25,342.21,163.72,342.21Z"/><path class="cls-4" d="M191.19,352.13a19,19,0,0,0,1-6.23,1,1,0,0,1,1.18-1.18c.76,0,1.1.42,1.1,1.18a19.25,19.25,0,0,1-1.52,7.79l4.25,3.84a1,1,0,0,1,.42.8,1.41,1.41,0,0,1-1.18,1.22,1.51,1.51,0,0,1-1-.46c-1-.8-2.47-2.24-3.69-3.31a9.46,9.46,0,0,1-8,4c-5.05,0-8.05-3.46-8.05-7.52a7.12,7.12,0,0,1,4.56-6.76c-1.79-1.63-2.89-3.27-2.89-5.85,0-3.76,3-6.46,6.92-6.46a9.07,9.07,0,0,1,6.31,2.17,1.69,1.69,0,0,1,.68,1.14,1.38,1.38,0,0,1-1.18,1.25,1.18,1.18,0,0,1-.87-.42,6.76,6.76,0,0,0-4.75-1.9c-2.7,0-4.75,1.44-4.75,4.22,0,2.17,1.29,3.46,3.27,5.28C183.36,345.37,189.33,350.54,191.19,352.13Zm-1.1,2.2c-3.57-3.19-6.92-6.08-8.17-7.22a5.16,5.16,0,0,0-3.91,5.13c0,2.81,2,5.32,5.78,5.32A7.13,7.13,0,0,0,190.09,354.33Z"/><path class="cls-4" d="M226.3,356.92a11.09,11.09,0,0,1-7.52,2.89c-7,0-10.9-5.43-10.9-13.3s4.67-13.3,11.32-13.3a10.23,10.23,0,0,1,6.8,2.17,1.43,1.43,0,0,1,.61,1.06,1.2,1.2,0,0,1-1.06,1.18c-.42,0-.68-.23-1.18-.57a8.69,8.69,0,0,0-5.17-1.6c-5.51,0-8.93,4.56-8.93,11.06,0,7.22,3.65,11.06,8.55,11.06a9.44,9.44,0,0,0,6.23-2.39,1.42,1.42,0,0,1,1-.42,1.05,1.05,0,0,1,1,1.1A1.65,1.65,0,0,1,226.3,356.92Z"/><path class="cls-4" d="M244.31,357.34a8.21,8.21,0,0,1-11.74,0,10.56,10.56,0,0,1-2.62-7.6c0-3.34.91-6,2.7-7.79a8,8,0,0,1,5.78-2.28,7.91,7.91,0,0,1,5.78,2.28c1.82,1.79,2.74,4.45,2.74,7.79A10.55,10.55,0,0,1,244.31,357.34Zm-1.67-13.68a5.92,5.92,0,0,0-8.4,0c-1.33,1.37-1.94,3.38-1.94,6.08s.57,4.52,1.9,5.93a5.7,5.7,0,0,0,4.22,1.9,5.84,5.84,0,0,0,4.25-1.9,8.36,8.36,0,0,0,1.9-5.93C244.58,347,243.93,345,242.64,343.66Z"/><path class="cls-4" d="M265.44,359.54a1.06,1.06,0,0,1-1.22-1.18V347.19c0-2.32-.72-5.28-4.6-5.28-3.23,0-5.81,2.36-5.81,6.76v9.69a1.18,1.18,0,0,1-2.36,0V341.11a1.18,1.18,0,0,1,2.36,0v2a6.91,6.91,0,0,1,6.12-3.46c4.9,0,6.65,3.27,6.65,6.88v11.82C266.58,359.16,266.24,359.54,265.44,359.54Z"/><path class="cls-4" d="M278.78,342.21h-3.23V354.3c0,1.6.34,3.27,2.24,3.27a3.46,3.46,0,0,0,1.41-.3,2.47,2.47,0,0,1,.84-.3,1.08,1.08,0,0,1,.95,1.1,1.23,1.23,0,0,1-.57,1,4.55,4.55,0,0,1-2.7.8c-2.77,0-4.52-1.29-4.52-5.32V342.21h-2.13c-.8,0-1.18-.3-1.18-1.06s.38-1.1,1.18-1.1h2.13V335.6a1,1,0,0,1,1.18-1.14c.8,0,1.18.38,1.18,1.14V340h3.23c.8,0,1.18.3,1.18,1.1S279.57,342.21,278.78,342.21Z"/><path class="cls-4" d="M293.1,342.21a2.16,2.16,0,0,1-.57-.11,5,5,0,0,0-1.37-.19c-2.66,0-4.64,2-4.64,5.39v11.06a1,1,0,0,1-1.18,1.18,1,1,0,0,1-1.18-1.18V341.07a1,1,0,0,1,1.18-1.14c.8,0,1.18.38,1.18,1.14v1.33a5.12,5.12,0,0,1,4.67-2.74c1.82,0,2.74.57,2.74,1.33S293.63,342.21,293.1,342.21Z"/><path class="cls-4" d="M309.89,357.34a8.21,8.21,0,0,1-11.74,0,10.56,10.56,0,0,1-2.62-7.6c0-3.34.91-6,2.7-7.79a8,8,0,0,1,5.78-2.28,7.91,7.91,0,0,1,5.78,2.28c1.82,1.79,2.74,4.45,2.74,7.79A10.55,10.55,0,0,1,309.89,357.34Zm-1.67-13.68a5.92,5.92,0,0,0-8.4,0c-1.33,1.37-1.94,3.38-1.94,6.08s.57,4.52,1.9,5.93a5.7,5.7,0,0,0,4.22,1.9,5.84,5.84,0,0,0,4.25-1.9,8.36,8.36,0,0,0,1.9-5.93C310.16,347,309.51,345,308.22,343.66Z"/><path class="cls-4" d="M319.39,358.4a1.05,1.05,0,0,1-1.18,1.14c-.8,0-1.18-.38-1.18-1.14V332.07a1,1,0,0,1,1.18-1.14c.8,0,1.18.38,1.18,1.14Z"/><path class="cls-4" d="M63.24,474.85a1.83,1.83,0,0,1-2,1.9,1.87,1.87,0,0,1-1.75-1.06L47.1,453.57v22a1,1,0,0,1-1.1,1.18c-.8,0-1.14-.38-1.14-1.18V452.73a1.88,1.88,0,0,1,2-2.05,1.84,1.84,0,0,1,1.79,1L61,473.78V451.86a1,1,0,0,1,1.1-1.18c.8,0,1.14.38,1.14,1.18Z"/><path class="cls-4" d="M82.74,474.54a8.21,8.21,0,0,1-11.74,0,10.56,10.56,0,0,1-2.62-7.6c0-3.34.91-6,2.7-7.79a8,8,0,0,1,5.78-2.28,7.91,7.91,0,0,1,5.78,2.28c1.82,1.79,2.74,4.45,2.74,7.79A10.55,10.55,0,0,1,82.74,474.54Zm-1.67-13.68a5.92,5.92,0,0,0-8.4,0c-1.33,1.37-1.94,3.38-1.94,6.08s.57,4.52,1.9,5.93a5.7,5.7,0,0,0,4.22,1.9,5.84,5.84,0,0,0,4.25-1.9,8.36,8.36,0,0,0,1.9-5.93C83,464.24,82.36,462.23,81.07,460.86Z"/><path class="cls-4" d="M96.53,459.42H93.3V471.5c0,1.6.34,3.27,2.24,3.27a3.46,3.46,0,0,0,1.41-.3,2.47,2.47,0,0,1,.84-.3,1.08,1.08,0,0,1,.95,1.1,1.23,1.23,0,0,1-.57,1,4.55,4.55,0,0,1-2.7.8c-2.77,0-4.52-1.29-4.52-5.32V459.42H88.82c-.8,0-1.18-.3-1.18-1.06s.38-1.1,1.18-1.1h2.13v-4.45a1,1,0,0,1,1.18-1.14c.8,0,1.18.38,1.18,1.14v4.45h3.23c.8,0,1.18.3,1.18,1.1S97.33,459.42,96.53,459.42Z"/><path class="cls-4" d="M103.11,452.47a1.6,1.6,0,1,1,0-3.19,1.58,1.58,0,0,1,1.6,1.6A1.56,1.56,0,0,1,103.11,452.47Zm0,24.28c-.76,0-1.14-.38-1.14-1.18V458.28a1,1,0,0,1,1.18-1.14c.8,0,1.18.38,1.18,1.14v17.29A1.06,1.06,0,0,1,103.07,476.74Z"/><path class="cls-4" d="M118.5,448.59a1,1,0,0,1,.65,1c0,.57-.42,1.18-.95,1.18a1.59,1.59,0,0,1-.57-.15,3.3,3.3,0,0,0-1.22-.23c-2.17,0-3.08,1.18-3.08,4.25v2.62h3.23c.76,0,1.18.3,1.18,1.1s-.42,1.1-1.18,1.1h-3.23v16.11a1.18,1.18,0,0,1-2.36,0V459.46h-2.13c-.8,0-1.18-.34-1.18-1.1s.38-1.1,1.18-1.1H111v-2.51c0-4.22,1.75-6.61,5.55-6.61A4.7,4.7,0,0,1,118.5,448.59Z"/><path class="cls-4" d="M122.37,452.47a1.6,1.6,0,1,1,0-3.19,1.58,1.58,0,0,1,1.6,1.6A1.56,1.56,0,0,1,122.37,452.47Zm0,24.28c-.76,0-1.14-.38-1.14-1.18V458.28a1,1,0,0,1,1.18-1.14c.8,0,1.18.38,1.18,1.14v17.29A1.06,1.06,0,0,1,122.33,476.74Z"/><path class="cls-4" d="M143.16,460a1.2,1.2,0,0,1-1.14,1.18c-.34,0-.57-.19-1-.53a6.71,6.71,0,0,0-4.22-1.48c-3.69,0-6.34,2.89-6.34,7.83s2.58,7.83,6.23,7.83a7.13,7.13,0,0,0,4.37-1.6,2,2,0,0,1,1.06-.53,1.2,1.2,0,0,1,1.1,1.22,1.18,1.18,0,0,1-.53.95,9.2,9.2,0,0,1-6.08,2.2c-5.17,0-8.51-4-8.51-10.07,0-6.23,3.8-10.07,8.78-10.07A7.93,7.93,0,0,1,142.7,459,1.3,1.3,0,0,1,143.16,460Z"/><path class="cls-4" d="M161.4,476.74a1,1,0,0,1-1.18-1.18v-1.82a6.42,6.42,0,0,1-5.85,3.27c-5.62,0-8-4.79-8-10.11s2.43-10,8.24-10a6.18,6.18,0,0,1,5.59,3v-1.6c0-.76.38-1.14,1.18-1.14a1,1,0,0,1,1.18,1.14v17.29A1,1,0,0,1,161.4,476.74Zm-1.18-11.66c0-3.46-2.24-6-5.51-6-4.33,0-6,4.06-6,7.79s1.22,7.86,6,7.86c3.27,0,5.51-2.47,5.51-5.93Z"/><path class="cls-4" d="M174.85,459.42h-3.23V471.5c0,1.6.34,3.27,2.24,3.27a3.46,3.46,0,0,0,1.41-.3,2.47,2.47,0,0,1,.84-.3,1.08,1.08,0,0,1,.95,1.1,1.23,1.23,0,0,1-.57,1,4.55,4.55,0,0,1-2.7.8c-2.77,0-4.52-1.29-4.52-5.32V459.42h-2.13c-.8,0-1.18-.3-1.18-1.06s.38-1.1,1.18-1.1h2.13v-4.45a1,1,0,0,1,1.18-1.14c.8,0,1.18.38,1.18,1.14v4.45h3.23c.8,0,1.18.3,1.18,1.1S175.65,459.42,174.85,459.42Z"/><path class="cls-4" d="M181.42,452.47a1.6,1.6,0,0,1,0-3.19,1.58,1.58,0,0,1,1.6,1.6A1.56,1.56,0,0,1,181.42,452.47Zm0,24.28c-.76,0-1.14-.38-1.14-1.18V458.28a1,1,0,0,1,1.18-1.14c.8,0,1.18.38,1.18,1.14v17.29A1.06,1.06,0,0,1,181.39,476.74Z"/><path class="cls-4" d="M201.49,474.54a8.21,8.21,0,0,1-11.74,0,10.56,10.56,0,0,1-2.62-7.6c0-3.34.91-6,2.7-7.79a8,8,0,0,1,5.78-2.28,7.91,7.91,0,0,1,5.78,2.28c1.82,1.79,2.74,4.45,2.74,7.79A10.55,10.55,0,0,1,201.49,474.54Zm-1.67-13.68a5.92,5.92,0,0,0-8.4,0c-1.33,1.37-1.94,3.38-1.94,6.08s.57,4.52,1.9,5.93a5.7,5.7,0,0,0,4.22,1.9,5.84,5.84,0,0,0,4.25-1.9,8.36,8.36,0,0,0,1.9-5.93C201.75,464.24,201.11,462.23,199.81,460.86Z"/><path class="cls-4" d="M222.61,476.74a1.06,1.06,0,0,1-1.22-1.18V464.4c0-2.32-.72-5.28-4.6-5.28-3.23,0-5.81,2.36-5.81,6.76v9.69a1.18,1.18,0,0,1-2.36,0V458.32a1.18,1.18,0,1,1,2.36,0v2a6.91,6.91,0,0,1,6.12-3.46c4.9,0,6.65,3.27,6.65,6.88v11.82C223.75,476.36,223.41,476.74,222.61,476.74Z"/><path class="cls-4" d="M65.86,710.94c-.68,0-1.06-.38-1.06-1.18V687.54l-7.45,13.83a1.53,1.53,0,0,1-1.41,1,1.47,1.47,0,0,1-1.44-1s-6.23-11.4-7.41-13.87v22.23c0,.8-.38,1.18-1.1,1.18s-1.14-.38-1.14-1.18V686.93a2,2,0,0,1,3.76-1l7.33,13.6,7.33-13.6a2,2,0,0,1,3.76,1v22.83A1,1,0,0,1,65.86,710.94Z"/><path class="cls-4" d="M87.18,710.94A1,1,0,0,1,86,709.76v-1.82a6.42,6.42,0,0,1-5.85,3.27c-5.62,0-8-4.79-8-10.11s2.43-10,8.25-10a6.18,6.18,0,0,1,5.58,3v-1.6c0-.76.38-1.14,1.18-1.14a1,1,0,0,1,1.18,1.14v17.29A1,1,0,0,1,87.18,710.94ZM86,699.28c0-3.46-2.24-6-5.51-6-4.33,0-6,4.07-6,7.79s1.22,7.87,6,7.87C83.76,709,86,706.5,86,703Z"/><path class="cls-4" d="M108,710.94a1.06,1.06,0,0,1-1.22-1.18V698.59c0-2.32-.72-5.28-4.6-5.28-3.23,0-5.81,2.36-5.81,6.76v9.69a1.18,1.18,0,0,1-2.36,0V692.52a1.18,1.18,0,0,1,2.36,0v2a6.9,6.9,0,0,1,6.12-3.46c4.9,0,6.65,3.27,6.65,6.88v11.82C109.11,710.56,108.77,710.94,108,710.94Z"/><path class="cls-4" d="M128.53,710.94a1,1,0,0,1-1.18-1.18v-2a6.81,6.81,0,0,1-6.19,3.46c-4.67,0-6.57-3.31-6.57-7.18V692.52c0-.8.34-1.18,1.14-1.18a1.06,1.06,0,0,1,1.22,1.18v11.36c0,2.77,1.41,5.09,4.56,5.09,3.69,0,5.85-2.7,5.85-6.65v-9.8a1.18,1.18,0,0,1,2.36,0v17.25A1,1,0,0,1,128.53,710.94Z"/><path class="cls-4" d="M149.24,710.94a1,1,0,0,1-1.18-1.18v-1.82a6.42,6.42,0,0,1-5.85,3.27c-5.62,0-8-4.79-8-10.11s2.43-10,8.24-10a6.18,6.18,0,0,1,5.58,3v-1.6c0-.76.38-1.14,1.18-1.14a1,1,0,0,1,1.18,1.14v17.29A1,1,0,0,1,149.24,710.94Zm-1.18-11.66c0-3.46-2.24-6-5.51-6-4.33,0-6,4.07-6,7.79s1.22,7.87,6,7.87c3.27,0,5.51-2.47,5.51-5.93Z"/><path class="cls-4" d="M158.4,709.8a1.05,1.05,0,0,1-1.18,1.14c-.8,0-1.18-.38-1.18-1.14V683.47a1,1,0,0,1,1.18-1.14c.8,0,1.18.38,1.18,1.14Z"/><path class="cls-4" d="M169.41,711.21a10.2,10.2,0,0,1-6.35-2.09,1.16,1.16,0,0,1-.49-1,1.19,1.19,0,0,1,1.06-1.18,1.31,1.31,0,0,1,.91.34,8.59,8.59,0,0,0,4.86,1.67c3,0,4.52-1.33,4.52-3.23,0-5.32-11.06-1.25-11.06-9,0-3.34,2.85-5.66,6.88-5.66a8.8,8.8,0,0,1,5.43,1.67,1.16,1.16,0,0,1,.61,1c0,.53-.49,1.29-1.1,1.29a1.38,1.38,0,0,1-.91-.38,6.75,6.75,0,0,0-4.07-1.33c-3.23,0-4.48,1.63-4.48,3.27,0,5.55,11.06,1.44,11.06,9C176.29,708.7,173.78,711.21,169.41,711.21Z"/><path class="cls-4" d="M52.22,583.68h-5v9a1,1,0,0,1-1.18,1.18,1.06,1.06,0,0,1-1.22-1.18V570.8c0-1.71.84-2.89,2.77-2.89h4.86c5.21,0,8,3,8,8C60.47,580.41,57.28,583.68,52.22,583.68Zm.23-13.41H47.89a.66.66,0,0,0-.65.72v10.33h5.17c3.57,0,5.66-2.28,5.66-5.43C58.07,572.32,56.4,570.27,52.45,570.27Z"/><path class="cls-4" d="M73.28,576.54a2.19,2.19,0,0,1-.57-.11,4.91,4.91,0,0,0-1.37-.19c-2.66,0-4.64,2-4.64,5.4v11.06a1,1,0,0,1-1.18,1.18,1,1,0,0,1-1.18-1.18V575.4a1,1,0,0,1,1.18-1.14c.8,0,1.18.38,1.18,1.14v1.33A5.11,5.11,0,0,1,71.38,574c1.82,0,2.74.57,2.74,1.33S73.81,576.54,73.28,576.54Z"/><path class="cls-4" d="M90.06,591.66a8.21,8.21,0,0,1-11.74,0,10.55,10.55,0,0,1-2.62-7.6c0-3.34.91-6,2.7-7.79A8,8,0,0,1,84.17,574a7.91,7.91,0,0,1,5.77,2.28c1.82,1.79,2.74,4.45,2.74,7.79A10.55,10.55,0,0,1,90.06,591.66ZM88.39,578a5.92,5.92,0,0,0-8.4,0c-1.33,1.37-1.94,3.38-1.94,6.08s.57,4.52,1.9,5.93a5.7,5.7,0,0,0,4.22,1.9,5.84,5.84,0,0,0,4.26-1.9,8.36,8.36,0,0,0,1.9-5.93C90.33,581.36,89.68,579.35,88.39,578Z"/><path class="cls-4" d="M111.15,593.86a1.06,1.06,0,0,1-1.22-1.18v-1.48a6.37,6.37,0,0,1-5.51,2.93c-5.32,0-8.32-3.76-8.32-10S99.34,574,104.43,574a6.26,6.26,0,0,1,5.51,3V566.4c0-.76.42-1.14,1.22-1.14a1,1,0,0,1,1.14,1.14v26.29C112.29,593.48,111.91,593.86,111.15,593.86Zm-1.22-11.66c0-3.46-2.24-6-5.51-6-3.57,0-6,3.27-6,7.94,0,5,2.24,7.71,6,7.71,3.27,0,5.51-2.54,5.51-6Z"/><path class="cls-4" d="M131.63,593.86a1,1,0,0,1-1.18-1.18v-2a6.81,6.81,0,0,1-6.19,3.46c-4.67,0-6.57-3.31-6.57-7.18V575.44c0-.8.34-1.18,1.14-1.18a1.06,1.06,0,0,1,1.22,1.18V586.8c0,2.77,1.41,5.09,4.56,5.09,3.69,0,5.85-2.7,5.85-6.65v-9.8a1.18,1.18,0,0,1,2.36,0v17.25A1,1,0,0,1,131.63,593.86Z"/><path class="cls-4" d="M152.42,577.07a1.2,1.2,0,0,1-1.14,1.18c-.34,0-.57-.19-1-.53a6.7,6.7,0,0,0-4.22-1.48c-3.69,0-6.35,2.89-6.35,7.83s2.58,7.83,6.23,7.83a7.13,7.13,0,0,0,4.37-1.6,2,2,0,0,1,1.06-.53,1.2,1.2,0,0,1,1.1,1.21,1.18,1.18,0,0,1-.53,1,9.2,9.2,0,0,1-6.08,2.2c-5.17,0-8.51-4-8.51-10.07,0-6.23,3.8-10.07,8.78-10.07a7.93,7.93,0,0,1,5.85,2.17A1.29,1.29,0,0,1,152.42,577.07Z"/><path class="cls-4" d="M163.4,576.54h-3.23v12.08c0,1.6.34,3.27,2.24,3.27a3.45,3.45,0,0,0,1.41-.3,2.47,2.47,0,0,1,.84-.3,1.08,1.08,0,0,1,.95,1.1,1.22,1.22,0,0,1-.57.95,4.55,4.55,0,0,1-2.7.8c-2.77,0-4.52-1.29-4.52-5.32V576.54h-2.13c-.8,0-1.18-.3-1.18-1.06s.38-1.1,1.18-1.1h2.13v-4.45a1,1,0,0,1,1.18-1.14c.8,0,1.18.38,1.18,1.14v4.45h3.23c.8,0,1.18.3,1.18,1.1S164.2,576.54,163.4,576.54Z"/><path class="cls-4" d="M184.23,594.13a10.3,10.3,0,0,1-7.33-2.62,1.25,1.25,0,0,1-.53-1,1.27,1.27,0,0,1,1.14-1.21,1.25,1.25,0,0,1,1,.42,9,9,0,0,0,5.77,2.17c3.15,0,5.47-1.75,5.47-5,0-3.42-3-4.29-5.85-5.17-3.72-1.06-7-2.39-7-7.1,0-4.37,3.53-7,7.71-7a9.27,9.27,0,0,1,6.61,2.47,1.39,1.39,0,0,1,.53,1.06,1.21,1.21,0,0,1-1.18,1.18c-.38,0-.57-.19-1.06-.57a7.61,7.61,0,0,0-4.9-1.86c-3.31,0-5.32,1.94-5.32,4.75,0,3.27,2.77,4,5.36,4.79,4.14,1.22,7.45,2.74,7.45,7.49S188.44,594.13,184.23,594.13Z"/><path class="cls-4" d="M210.1,584.78H198.25c0,4.26,2.7,7.11,6.31,7.11a8.55,8.55,0,0,0,4.45-1.33c.42-.27.57-.38.87-.38a1.2,1.2,0,0,1,1.06,1.21c0,.42-.23.61-.53.87a9.35,9.35,0,0,1-5.89,1.86c-5.55,0-8.66-4.1-8.66-9.88,0-5.43,2.85-10.26,8.55-10.26,4.75,0,7.49,3.49,7.49,8.62C211.89,583.8,211.39,584.78,210.1,584.78Zm-5.77-8.55c-3.72,0-5.81,2.93-6,6.35h11.21C209.57,579.24,207.9,576.23,204.33,576.23Z"/><path class="cls-4" d="M222.95,576.54h-3.23v12.08c0,1.6.34,3.27,2.24,3.27a3.45,3.45,0,0,0,1.41-.3,2.47,2.47,0,0,1,.84-.3,1.08,1.08,0,0,1,.95,1.1,1.22,1.22,0,0,1-.57.95,4.55,4.55,0,0,1-2.7.8c-2.77,0-4.52-1.29-4.52-5.32V576.54h-2.13c-.8,0-1.18-.3-1.18-1.06s.38-1.1,1.18-1.1h2.13v-4.45a1,1,0,0,1,1.18-1.14c.8,0,1.18.38,1.18,1.14v4.45h3.23c.8,0,1.18.3,1.18,1.1S223.74,576.54,222.95,576.54Z"/><path class="cls-4" d="M235,576.54h-3.23v12.08c0,1.6.34,3.27,2.24,3.27a3.45,3.45,0,0,0,1.41-.3,2.47,2.47,0,0,1,.84-.3,1.08,1.08,0,0,1,1,1.1,1.22,1.22,0,0,1-.57.95,4.55,4.55,0,0,1-2.7.8c-2.77,0-4.52-1.29-4.52-5.32V576.54h-2.13c-.8,0-1.18-.3-1.18-1.06s.38-1.1,1.18-1.1h2.13v-4.45a1,1,0,0,1,1.18-1.14c.8,0,1.18.38,1.18,1.14v4.45H235c.8,0,1.18.3,1.18,1.1S235.79,576.54,235,576.54Z"/><path class="cls-4" d="M241.57,569.59a1.6,1.6,0,1,1,0-3.19,1.58,1.58,0,0,1,1.6,1.6A1.56,1.56,0,0,1,241.57,569.59Zm0,24.28c-.76,0-1.14-.38-1.14-1.18V575.4a1,1,0,0,1,1.18-1.14c.8,0,1.18.38,1.18,1.14v17.29A1.06,1.06,0,0,1,241.53,593.86Z"/><path class="cls-4" d="M262.35,593.86a1.06,1.06,0,0,1-1.22-1.18V581.52c0-2.32-.72-5.28-4.6-5.28-3.23,0-5.81,2.36-5.81,6.76v9.69a1.18,1.18,0,0,1-2.36,0V575.44a1.18,1.18,0,0,1,2.36,0v2a6.9,6.9,0,0,1,6.12-3.46c4.9,0,6.65,3.27,6.65,6.88v11.82C263.49,593.48,263.15,593.86,262.35,593.86Z"/><path class="cls-4" d="M284.12,592c0,6.12-2.66,9.76-8.66,9.76a10.51,10.51,0,0,1-5.51-1.63c-.53-.38-.72-.68-.72-1a1.21,1.21,0,0,1,1-1.29,2.11,2.11,0,0,1,1.06.42,8.16,8.16,0,0,0,4.26,1.29c4.75,0,6.23-3.08,6.23-7v-1.82a6.29,6.29,0,0,1-5.78,3.38c-4.79,0-8.05-3.69-8.05-10.11,0-6.27,3.23-10,8.32-10a6.26,6.26,0,0,1,5.51,3V575.4c0-.76.42-1.14,1.22-1.14a1,1,0,0,1,1.14,1.14Zm-2.36-9.8c0-3.46-2.24-6-5.51-6-3.57,0-6,2.81-6,7.79s2.17,7.87,6,7.87c3.38,0,5.51-2.54,5.51-6Z"/><path class="cls-4" d="M295.15,594.13A10.2,10.2,0,0,1,288.8,592a1.16,1.16,0,0,1-.49-1,1.2,1.2,0,0,1,1.06-1.18,1.31,1.31,0,0,1,.91.34,8.58,8.58,0,0,0,4.86,1.67c3,0,4.52-1.33,4.52-3.23,0-5.32-11.06-1.25-11.06-9,0-3.34,2.85-5.66,6.88-5.66a8.8,8.8,0,0,1,5.43,1.67,1.16,1.16,0,0,1,.61,1c0,.53-.49,1.29-1.1,1.29a1.38,1.38,0,0,1-.91-.38,6.75,6.75,0,0,0-4.07-1.33c-3.23,0-4.48,1.63-4.48,3.27,0,5.55,11.06,1.44,11.06,9C302,591.62,299.51,594.13,295.15,594.13Z"/><path class="cls-4" d="M52.22,818.1h-5v9a1,1,0,0,1-1.18,1.18,1.06,1.06,0,0,1-1.22-1.18V805.22c0-1.71.84-2.89,2.77-2.89h4.86c5.21,0,8,3,8,8C60.47,814.83,57.28,818.1,52.22,818.1Zm.23-13.41H47.89a.66.66,0,0,0-.65.72v10.33h5.17c3.57,0,5.66-2.28,5.66-5.43C58.07,806.74,56.4,804.69,52.45,804.69Z"/><path class="cls-4" d="M73.28,811a2.19,2.19,0,0,1-.57-.11,4.91,4.91,0,0,0-1.37-.19c-2.66,0-4.64,2-4.64,5.4v11.06a1,1,0,0,1-1.18,1.18,1,1,0,0,1-1.18-1.18V809.82a1,1,0,0,1,1.18-1.14c.8,0,1.18.38,1.18,1.14v1.33a5.11,5.11,0,0,1,4.67-2.73c1.82,0,2.74.57,2.74,1.33S73.81,811,73.28,811Z"/><path class="cls-4" d="M90.06,826.08a8.21,8.21,0,0,1-11.74,0,10.55,10.55,0,0,1-2.62-7.6c0-3.34.91-6,2.7-7.79a8,8,0,0,1,5.77-2.28,7.91,7.91,0,0,1,5.77,2.28c1.82,1.79,2.74,4.45,2.74,7.79A10.55,10.55,0,0,1,90.06,826.08ZM88.39,812.4a5.92,5.92,0,0,0-8.4,0c-1.33,1.37-1.94,3.38-1.94,6.08s.57,4.52,1.9,5.93a5.7,5.7,0,0,0,4.22,1.9,5.84,5.84,0,0,0,4.26-1.9,8.36,8.36,0,0,0,1.9-5.93C90.33,815.78,89.68,813.77,88.39,812.4Z"/><path class="cls-4" d="M111.15,828.28a1.06,1.06,0,0,1-1.22-1.18v-1.48a6.37,6.37,0,0,1-5.51,2.93c-5.32,0-8.32-3.76-8.32-10s3.23-10.18,8.32-10.18a6.26,6.26,0,0,1,5.51,3V800.82c0-.76.42-1.14,1.22-1.14a1,1,0,0,1,1.14,1.14v26.29C112.29,827.9,111.91,828.28,111.15,828.28Zm-1.22-11.66c0-3.46-2.24-6-5.51-6-3.57,0-6,3.27-6,7.94,0,5,2.24,7.71,6,7.71,3.27,0,5.51-2.54,5.51-6Z"/><path class="cls-4" d="M131.63,828.28a1,1,0,0,1-1.18-1.18v-2a6.81,6.81,0,0,1-6.19,3.46c-4.67,0-6.57-3.31-6.57-7.18V809.86c0-.8.34-1.18,1.14-1.18a1.06,1.06,0,0,1,1.22,1.18v11.36c0,2.77,1.41,5.09,4.56,5.09,3.69,0,5.85-2.7,5.85-6.65v-9.8a1.18,1.18,0,0,1,2.36,0v17.25A1,1,0,0,1,131.63,828.28Z"/><path class="cls-4" d="M152.42,811.49a1.2,1.2,0,0,1-1.14,1.18c-.34,0-.57-.19-1-.53a6.7,6.7,0,0,0-4.22-1.48c-3.69,0-6.35,2.89-6.35,7.83s2.58,7.83,6.23,7.83a7.13,7.13,0,0,0,4.37-1.6,2,2,0,0,1,1.06-.53,1.2,1.2,0,0,1,1.1,1.21,1.18,1.18,0,0,1-.53,1,9.2,9.2,0,0,1-6.08,2.2c-5.17,0-8.51-4-8.51-10.07,0-6.23,3.8-10.07,8.78-10.07a7.93,7.93,0,0,1,5.85,2.17A1.29,1.29,0,0,1,152.42,811.49Z"/><path class="cls-4" d="M163.4,811h-3.23V823c0,1.6.34,3.27,2.24,3.27a3.45,3.45,0,0,0,1.41-.3,2.47,2.47,0,0,1,.84-.3,1.08,1.08,0,0,1,.95,1.1,1.22,1.22,0,0,1-.57.95,4.55,4.55,0,0,1-2.7.8c-2.77,0-4.52-1.29-4.52-5.32V811h-2.13c-.8,0-1.18-.3-1.18-1.06s.38-1.1,1.18-1.1h2.13v-4.45a1,1,0,0,1,1.18-1.14c.8,0,1.18.38,1.18,1.14v4.45h3.23c.8,0,1.18.3,1.18,1.1S164.2,811,163.4,811Z"/><path class="cls-4" d="M179.4,828.28a1.06,1.06,0,0,1-1.18-1.22V803.4a1,1,0,0,1,1.18-1.18,1.06,1.06,0,0,1,1.22,1.18v23.67A1.08,1.08,0,0,1,179.4,828.28Z"/><path class="cls-4" d="M200.83,828.28a1.06,1.06,0,0,1-1.22-1.18V815.94c0-2.32-.72-5.28-4.6-5.28-3.23,0-5.81,2.36-5.81,6.76v9.69a1.18,1.18,0,0,1-2.36,0V809.86a1.18,1.18,0,0,1,2.36,0v2a6.9,6.9,0,0,1,6.12-3.46c4.9,0,6.65,3.27,6.65,6.88v11.82C202,827.9,201.63,828.28,200.83,828.28Z"/><path class="cls-4" d="M216.11,800.13a1,1,0,0,1,.65,1c0,.57-.42,1.18-.95,1.18a1.59,1.59,0,0,1-.57-.15,3.28,3.28,0,0,0-1.22-.23c-2.17,0-3.08,1.18-3.08,4.26v2.62h3.23c.76,0,1.18.3,1.18,1.1s-.42,1.1-1.18,1.1h-3.23v16.11a1.18,1.18,0,1,1-2.36,0V811h-2.13c-.8,0-1.18-.34-1.18-1.1s.38-1.1,1.18-1.1h2.13v-2.51c0-4.22,1.75-6.61,5.55-6.61A4.67,4.67,0,0,1,216.11,800.13Z"/><path class="cls-4" d="M232.07,826.08a8.21,8.21,0,0,1-11.74,0,10.55,10.55,0,0,1-2.62-7.6c0-3.34.91-6,2.7-7.79a8,8,0,0,1,5.77-2.28,7.91,7.91,0,0,1,5.78,2.28c1.82,1.79,2.74,4.45,2.74,7.79A10.55,10.55,0,0,1,232.07,826.08Zm-1.67-13.68a5.92,5.92,0,0,0-8.4,0c-1.33,1.37-1.94,3.38-1.94,6.08s.57,4.52,1.9,5.93a5.7,5.7,0,0,0,4.22,1.9,5.84,5.84,0,0,0,4.26-1.9,8.36,8.36,0,0,0,1.9-5.93C232.33,815.78,231.69,813.77,230.39,812.4Z"/><path class="cls-4" d="M55.2,229.46H49.8c-2,0-3.24-1.12-3.24-3.08v-20.8a3,3,0,0,1,3.36-3.32H55.2c8.2,0,12.6,5.52,12.6,13C67.79,223.5,63.4,229.46,55.2,229.46Zm.2-23.68H50.92a.62.62,0,0,0-.64.68v18.88a.54.54,0,0,0,.56.6h4.24c6.16,0,9-4.44,9-10.48C64.07,209.86,61.32,205.9,55.4,205.78Z"/><path class="cls-4" d="M74.28,205a2.14,2.14,0,0,1-2.12-2.16A2.14,2.14,0,1,1,74.28,205Zm0,24.72c-1.12,0-1.76-.44-1.76-1.6V210.38c0-1.2.68-1.56,1.8-1.56s1.84.36,1.84,1.56V228.1C76.12,229.26,75.4,229.7,74.24,229.7Z"/><path class="cls-4" d="M87.76,229.86a10.74,10.74,0,0,1-6.28-1.8,2.2,2.2,0,0,1-1-1.72A1.89,1.89,0,0,1,82,224.5a2.31,2.31,0,0,1,1.32.56,8.64,8.64,0,0,0,4.48,1.44c2.2,0,3.76-.88,3.76-2.64s-1.56-2.24-4-2.8c-3.92-.88-6.88-2.16-6.88-6.16s3.2-6.24,7.56-6.24a9.36,9.36,0,0,1,5.44,1.56c.84.6,1.2,1.16,1.2,1.72a1.8,1.8,0,0,1-1.64,1.84,2.52,2.52,0,0,1-1.44-.56A6.16,6.16,0,0,0,88,212c-2.56,0-3.64,1.36-3.64,2.6,0,2.2,2.24,2.68,4.88,3.24,3.4.76,6,2,6,5.8C95.28,227.22,92.28,229.86,87.76,229.86Z"/><path class="cls-4" d="M114.59,229.7c-1.16,0-1.88-.4-1.88-1.64V216.7c0-2.4-1.08-4.6-4.08-4.6s-5.2,2.32-5.2,6.24v9.72c0,1.2-.72,1.64-1.84,1.64s-1.8-.44-1.8-1.64v-27c0-1.2.68-1.6,1.84-1.6s1.8.4,1.8,1.6V212a6.93,6.93,0,0,1,6.08-3.32c4.52,0,6.88,3.08,6.88,7.4v12C116.39,229.26,115.71,229.7,114.59,229.7Z"/><path class="cls-4" d="M146.31,217.3a74.8,74.8,0,0,1-4.4,11.48,1.56,1.56,0,0,1-1.56.92H140a1.64,1.64,0,0,1-1.72-1c-1.52-3-3.32-9.16-4.36-14-1.16,4.92-3,10.88-4.72,14.08a1.52,1.52,0,0,1-1.52.92h-.28c-1,0-1.52-.2-1.88-1a57,57,0,0,1-4.12-11.56,42.07,42.07,0,0,1-1.44-7c0-1,.88-1.48,2-1.48s1.4.4,1.56,1.36c.8,4.72,2.48,11.88,4.12,15.72a85.38,85.38,0,0,0,4.48-15.68,1.68,1.68,0,0,1,1.88-1.4,1.79,1.79,0,0,1,2,1.44A88,88,0,0,0,140,225.9a84.39,84.39,0,0,0,4.36-15.76c.16-1,.52-1.4,1.6-1.4s1.92.52,1.92,1.44A33.55,33.55,0,0,1,146.31,217.3Z"/><path class="cls-4" d="M165.83,229.7c-1.08,0-1.8-.36-1.8-1.52V226.7a6.17,6.17,0,0,1-5.76,3.16c-5.24,0-8.24-4.36-8.24-10.64,0-6,3-10.56,8.6-10.56a6,6,0,0,1,5.4,2.84v-1.08c0-1.2.68-1.6,1.84-1.6s1.8.4,1.8,1.6V228.1C167.67,229.34,167,229.7,165.83,229.7ZM164,217.5c0-3-1.84-5.48-5-5.48-3.76,0-5.36,3.44-5.36,7.2,0,4.08,1.6,7.28,5.36,7.28,3.24,0,5-2.56,5-5.48Z"/><path class="cls-4" d="M179.35,229.86a10.75,10.75,0,0,1-6.28-1.8,2.2,2.2,0,0,1-1-1.72,1.89,1.89,0,0,1,1.6-1.84,2.31,2.31,0,0,1,1.32.56,8.64,8.64,0,0,0,4.48,1.44c2.2,0,3.76-.88,3.76-2.64s-1.56-2.24-4-2.8c-3.92-.88-6.88-2.16-6.88-6.16s3.2-6.24,7.56-6.24a9.36,9.36,0,0,1,5.44,1.56c.84.6,1.2,1.16,1.2,1.72a1.8,1.8,0,0,1-1.64,1.84,2.52,2.52,0,0,1-1.44-.56,6.15,6.15,0,0,0-3.8-1.2c-2.56,0-3.64,1.36-3.64,2.6,0,2.2,2.24,2.68,4.88,3.24,3.4.76,6,2,6,5.8C186.87,227.22,183.87,229.86,179.35,229.86Z"/><path class="cls-4" d="M206.19,229.7c-1.16,0-1.88-.4-1.88-1.64V216.7c0-2.4-1.08-4.6-4.08-4.6s-5.2,2.32-5.2,6.24v9.72c0,1.2-.72,1.64-1.84,1.64s-1.8-.44-1.8-1.64v-27c0-1.2.68-1.6,1.84-1.6s1.8.4,1.8,1.6V212a6.93,6.93,0,0,1,6.08-3.32c4.52,0,6.88,3.08,6.88,7.4v12C208,229.26,207.31,229.7,206.19,229.7Z"/><path class="cls-4" d="M227.63,220.58H216.11c.32,3.76,2.56,5.92,5.76,5.92a7.09,7.09,0,0,0,4-1.16,3.09,3.09,0,0,1,1.52-.64,1.84,1.84,0,0,1,1.64,1.72c0,.68-.32,1.2-1.6,2a10.36,10.36,0,0,1-5.64,1.48c-6,0-9.44-4.28-9.44-10.44,0-6,3.12-10.76,9.24-10.76,5.2,0,8.32,3.76,8.32,9.2C229.91,219.34,229.43,220.58,227.63,220.58Zm-11.44-3.24h10c-.08-2.8-1.6-5.32-4.68-5.32S216.51,214.38,216.19,217.34Z"/><path class="cls-4" d="M244.47,212.46a2.58,2.58,0,0,1-.8-.12,4.61,4.61,0,0,0-1.36-.24c-2.6,0-4.48,2.08-4.48,5.84v10.12c0,1.24-.64,1.64-1.84,1.64-1,0-1.8-.4-1.8-1.64V210.38c0-1.2.68-1.56,1.84-1.56s1.8.36,1.8,1.56v1.24a5.26,5.26,0,0,1,4.88-3,4.94,4.94,0,0,1,2.24.44,1.46,1.46,0,0,1,.88,1.36C245.83,211.66,245.15,212.46,244.47,212.46Z"/><path class="cls-4" d="M293.12,227.87a1.33,1.33,0,0,1-.87-.32l-16.21-14a1.32,1.32,0,0,1-.14-1.87l2.77-3.22a1.33,1.33,0,0,1,.91-.46h.1a1.33,1.33,0,0,1,.87.32l12.57,10.85,12.56-10.85a1.33,1.33,0,0,1,.87-.32h.1a1.33,1.33,0,0,1,.91.46l2.78,3.22a1.32,1.32,0,0,1-.14,1.87l-16.21,14A1.33,1.33,0,0,1,293.12,227.87Z"/><path class="cls-3" d="M527,96.47a1.43,1.43,0,0,1-1,.42h-13.1V110a1.44,1.44,0,0,1-1.43,1.43h-2.24a1.44,1.44,0,0,1-1.43-1.44V96.89H494.68a1.44,1.44,0,0,1-1.43-1.44V93.21a1.44,1.44,0,0,1,1.43-1.43h13.09V78.68a1.44,1.44,0,0,1,1.43-1.43h2.24a1.44,1.44,0,0,1,1.43,1.43V91.78H526a1.44,1.44,0,0,1,1.43,1.44v2.24A1.43,1.43,0,0,1,527,96.47Z"/></svg>