<svg id="Layer_1" data-name="Layer 1" xmlns="http://www.w3.org/2000/svg" xmlns:xlink="http://www.w3.org/1999/xlink" viewBox="0 0 640 1136"><defs><style>.cls-1{fill:#fcfcfc;stroke:#808285;}.cls-1,.cls-15{stroke-miterlimit:10;}.cls-2{fill:#46853e;}.cls-3,.cls-4,.cls-5,.cls-6,.cls-7{opacity:0.5;}.cls-3{fill:url(#linear-gradient);}.cls-4{fill:url(#linear-gradient-2);}.cls-5{fill:url(#linear-gradient-3);}.cls-6{fill:url(#linear-gradient-4);}.cls-7{fill:url(#linear-gradient-5);}.cls-8,.cls-9{fill:#fff;}.cls-16,.cls-9{fill-rule:evenodd;}.cls-10{fill:#808285;}.cls-11{fill:#414042;}.cls-12{fill:#231f20;}.cls-13,.cls-16{fill:#808184;}.cls-14{fill:#3f7a3a;}.cls-15{fill:#d1d3d4;stroke:#d1d3d4;stroke-width:0.2px;}</style><linearGradient id="linear-gradient" x1="320" y1="656.49" x2="320" y2="648.63" gradientUnits="userSpaceOnUse"><stop offset="0" stop-color="#fff"/><stop offset="0.09" stop-color="#f8f8f8"/><stop offset="0.22" stop-color="#e4e4e4"/><stop offset="0.37" stop-color="#c4c4c4"/><stop offset="0.55" stop-color="#969696"/><stop offset="0.74" stop-color="#5c5c5c"/><stop offset="0.94" stop-color="#171717"/><stop offset="1"/></linearGradient><linearGradient id="linear-gradient-2" x1="320" y1="897.72" x2="320" y2="889.87" xlink:href="#linear-gradient"/><linearGradient id="linear-gradient-3" x1="320" y1="777.1" x2="320" y2="769.25" xlink:href="#linear-gradient"/><linearGradient id="linear-gradient-4" x1="320" y1="535.87" x2="320" y2="528.02" xlink:href="#linear-gradient"/><linearGradient id="linear-gradient-5" x1="320" y1="1018.34" x2="320" y2="1010.49" xlink:href="#linear-gradient"/></defs><title>Artboard 9 copy 7</title><rect class="cls-1" width="640" height="1136"/><rect class="cls-2" x="-0.83" width="641.66" height="147.07"/><rect class="cls-3" x="7.83" y="652.63" width="624.34" height="2.78"/><rect class="cls-4" x="7.83" y="893.86" width="624.34" height="2.78"/><rect class="cls-5" x="7.83" y="773.24" width="624.34" height="2.78"/><rect class="cls-6" x="7.83" y="532.01" width="624.34" height="2.78"/><rect class="cls-7" x="7.83" y="1014.48" width="624.34" height="2.78"/><path class="cls-8" d="M273.3,78.41H261.8a.87.87,0,0,0-.85.95v9.05H271.2c1.8,0,2.4.65,2.4,2.2,0,1.4-.6,2.2-2.4,2.2H261v13.4c0,1.45-.8,2.1-2.3,2.1s-2.35-.6-2.35-2.1V78.31c0-2.55,1.3-4.3,4.35-4.3H273.3c1.85,0,2.4.6,2.4,2.15C275.7,77.56,275.2,78.41,273.3,78.41Z"/><path class="cls-8" d="M293.3,86.76a3.2,3.2,0,0,1-1-.15,5.75,5.75,0,0,0-1.7-.3c-3.25,0-5.6,2.6-5.6,7.3v12.65c0,1.55-.8,2-2.3,2-1.3,0-2.25-.5-2.25-2V84.16c0-1.5.85-2,2.3-2,1.3,0,2.25.45,2.25,2v1.55a6.58,6.58,0,0,1,6.1-3.7,6.17,6.17,0,0,1,2.8.55,1.82,1.82,0,0,1,1.1,1.7C295,85.76,294.15,86.76,293.3,86.76Z"/><path class="cls-8" d="M301.2,77.41a2.68,2.68,0,0,1-2.65-2.7,2.68,2.68,0,1,1,2.65,2.7Zm0,30.9c-1.4,0-2.2-.55-2.2-2V84.16c0-1.5.85-2,2.25-2s2.3.45,2.3,2v22.15C303.5,107.76,302.6,108.31,301.15,108.31Z"/><path class="cls-8" d="M328.85,108.31c-1.3,0-2.35-.45-2.35-1.9v-1.6a7.72,7.72,0,0,1-7,3.7c-6.4,0-10.5-5-10.5-13.2,0-8,4.15-13.3,10.8-13.3a7.47,7.47,0,0,1,6.7,3.55V72.51c0-1.5.9-2,2.3-2s2.25.5,2.25,2v33.8C331.05,107.86,330.25,108.31,328.85,108.31ZM326.5,93.06c0-3.8-2.3-6.85-6.2-6.85-4.3,0-6.7,3.9-6.7,9.1,0,5.65,2.5,9,6.7,9,4,0,6.2-3.3,6.2-6.85Z"/><path class="cls-8" d="M358.65,105.71c0,8.05-4,12.85-11.85,12.85a13.18,13.18,0,0,1-7.15-1.9c-1-.75-1.45-1.4-1.45-2.1a2.27,2.27,0,0,1,2-2.35,4.55,4.55,0,0,1,2,.7,9.93,9.93,0,0,0,4.9,1.45c5.9,0,7.05-4,7.1-9v-.85a7.67,7.67,0,0,1-7.15,4c-6.1,0-10.35-4.9-10.35-13.3,0-8.05,4.15-13.2,10.8-13.2a7.6,7.6,0,0,1,6.7,3.55V84.21c0-1.5.9-2,2.3-2s2.25.55,2.25,2ZM354.1,93.06c0-3.8-2.3-6.85-6.2-6.85-4.3,0-6.7,3.65-6.7,9,0,5.65,2.5,9.1,6.7,9.1s6.2-3.25,6.2-6.85Z"/><path class="cls-8" d="M383.35,96.91h-14.4c.4,4.7,3.2,7.4,7.2,7.4a8.85,8.85,0,0,0,5-1.45,3.87,3.87,0,0,1,1.9-.8,2.29,2.29,0,0,1,2.05,2.15c0,.85-.4,1.5-2,2.45a13,13,0,0,1-7.05,1.85c-7.55,0-11.8-5.35-11.8-13.05C364.25,88,368.15,82,375.8,82c6.5,0,10.4,4.7,10.4,11.5C386.2,95.36,385.6,96.91,383.35,96.91Zm-14.3-4H381.6c-.1-3.5-2-6.65-5.85-6.65C371.75,86.21,369.45,89.16,369,92.86Z"/><rect class="cls-8" x="39.41" y="77.31" width="15.91" height="7.39" rx="1" ry="1"/><rect class="cls-8" x="39.41" y="89.93" width="15.91" height="7.39" rx="1" ry="1"/><rect class="cls-8" x="39.41" y="102.56" width="15.91" height="7.39" rx="1" ry="1"/><path class="cls-8" d="M103.56,63.63a30,30,0,1,0,30,30A30,30,0,0,0,103.56,63.63Zm0,58.58a28.59,28.59,0,1,1,28.58-28.58A28.58,28.58,0,0,1,103.56,122.21Z"/><path class="cls-8" d="M115.1,71.19A20.06,20.06,0,0,0,109,70.11c-4.81,0-5,2.74-7.23,2.74a2,2,0,0,1-2.08-2c0-1.92,2.24-3.42,5.81-3.41A18.78,18.78,0,0,1,112,68.51s.07,0,.1-.08a.14.14,0,0,0,0-.15,25.26,25.26,0,0,0-8.48-1.41c-9.55.08-19.28,4.9-22.43,15.21A19.67,19.67,0,0,0,80,88.15c0,4.81,2.74,5.06,2.74,7.31a2,2,0,0,1-2,2c-1.91,0-3.4-2.16-3.4-5.81a21.88,21.88,0,0,1,1-6.39s0-.08-.09-.11-.14,0-.14,0a27.36,27.36,0,0,0-1.34,8.47c0,9.64,4.9,19.36,15.21,22.52a20,20,0,0,0,6.07,1.07c4.82,0,5-2.82,7.22-2.82a2.06,2.06,0,0,1,2.08,2.07c0,1.83-2.17,3.32-5.82,3.32a20.78,20.78,0,0,1-6.39-1s-.1,0-.13.08a.13.13,0,0,0,0,.17,23.77,23.77,0,0,0,8.46,1.33c9.56,0,19.36-4.82,22.43-15.21a19.24,19.24,0,0,0,1.08-6c0-4.9-2.74-5.06-2.74-7.31a1.94,1.94,0,0,1,2-2.08c1.91,0,3.4,2.24,3.41,5.9a22.61,22.61,0,0,1-1,6.4s0,.08.09.11a.13.13,0,0,0,.16,0,26.47,26.47,0,0,0,1.33-8.55C130.22,84.15,125.5,74.35,115.1,71.19Zm-2.82,38.07c-5.73,0-8.64-4.82-8.64-9.14a10.36,10.36,0,0,1,5.9-9.56,3.31,3.31,0,0,1-.83-1,76.11,76.11,0,0,1-7.62,4.83,32.65,32.65,0,0,1-1.1,7.56c-1.42,4.24-4.32,7.32-8.14,7.32A4.58,4.58,0,0,1,87,104.43a8.66,8.66,0,0,1,3-5.9c2.42-2.16,5.08-3.49,8.72-5.4.08-.5.17-1,.25-1.58a5.09,5.09,0,0,1-3.32,1.16,3.8,3.8,0,0,1-3.49-3.08A4.35,4.35,0,0,1,88,85.15c0-1.92.75-3.57,2-3.57a.67.67,0,0,1,.67.75,16.46,16.46,0,0,0-.42,2.49c0,1.08.5,2.49,1.83,2.49,0-4.32,3.16-9.89,6.89-9.89a2.52,2.52,0,0,1,2.83,2.66c0,3.91-3.9,8.23-7.06,9.31a1.52,1.52,0,0,0,1.41,1.25,5.49,5.49,0,0,0,3.49-2.07c.33-1.75,1.59-4.25,3.24-4.25a1,1,0,0,1,1,1.09c0,1.24-1.37,2.86-2.37,3.94a14.5,14.5,0,0,0-.32,2.51,78.71,78.71,0,0,0,6.67-4.3,7.16,7.16,0,0,1-.17-1.91c0-3.91,2.58-8.23,6-8.23a2.72,2.72,0,0,1,2.91,2.83c0,2.82-2.41,5.32-5.81,7.9A2.63,2.63,0,0,0,112,89.67a6.6,6.6,0,0,1,2.21-.35c1,0,2.37.39,2.43,1.32.15,2.09-4.62,1.24-4.64,1.25-1.82.49-5.32,2.58-5.32,7.89,0,3.57,2.24,6.9,5.73,6.9a5.11,5.11,0,0,0,5-5.22c0-2-.94-3.92-2.93-3.92a2,2,0,0,0-2.07,1.77c-.12,1.62,1.32,1.89,1.32,3a1.06,1.06,0,0,1-1.16,1.08c-1.67,0-2.91-1.66-2.91-3.74a4.76,4.76,0,0,1,5-4.57c3.66,0,5.56,3.15,5.56,6.56A7.92,7.92,0,0,1,112.28,109.25Z"/><path class="cls-8" d="M89.77,104.6a1.89,1.89,0,0,0,2.07,2.07c4.27-.2,5.95-5.9,6.62-10.89C94.72,97.62,89.77,101,89.77,104.6Z"/><path class="cls-8" d="M98.94,79.65c-1.65-.55-4.36,4.67-4.36,7.41C97.33,85.57,100.9,80.31,98.94,79.65Z"/><path class="cls-8" d="M113.86,79.73c-1.26-.64-3.57,2.68-3.57,6.09C112.78,83.65,115.29,80.44,113.86,79.73Z"/><path class="cls-9" d="M581.66,112.58a.7.7,0,0,1-.7-.7v-6.41a4.88,4.88,0,0,0-9.76,0v6.4a.7.7,0,0,1-.7.7H559a.7.7,0,0,1-.7-.7V94.63h-2.53a.7.7,0,0,1-.49-1.19L575.6,73.1a.69.69,0,0,1,.49-.2h0a.69.69,0,0,1,.49.2l20.22,20.29a.7.7,0,0,1-.49,1.19h-2.49v17.31a.7.7,0,0,1-.7.7Z"/><path class="cls-10" d="M509.47,966.51a11.6,11.6,0,0,1-7.6,2.62c-7,0-11.28-5.05-11.28-13.18,0-8.47,5.13-13.41,11.7-13.41,3.31,0,5.81,1.06,7,2.24a2.08,2.08,0,0,1,.8,1.44,1.84,1.84,0,0,1-1.6,1.75,2.75,2.75,0,0,1-1.48-.61,7.29,7.29,0,0,0-4.79-1.52c-4.71,0-8.09,3.76-8.09,10.07s3,9.92,8.05,9.92a8.39,8.39,0,0,0,5.24-1.9c.65-.42.87-.61,1.44-.61a1.67,1.67,0,0,1,1.52,1.6A2.12,2.12,0,0,1,509.47,966.51Z"/><path class="cls-10" d="M517.64,967.46c0,1.1-.68,1.52-1.75,1.52s-1.71-.42-1.71-1.52V941.74c0-1.14.65-1.48,1.71-1.48s1.75.34,1.75,1.48Z"/><path class="cls-10" d="M530.63,969.13c-5.17,0-8.82-4-8.82-10.07,0-6.27,3.61-10.07,8.82-10.07,5.39,0,8.85,4,8.85,10.07S535.88,969.13,530.63,969.13Zm0-16.95c-3.5,0-5.36,2.7-5.36,6.88,0,4,1.94,6.88,5.32,6.88s5.36-2.77,5.36-6.88S534.09,952.19,530.67,952.19Z"/><path class="cls-10" d="M549.33,969.13a10.2,10.2,0,0,1-6-1.71,2.09,2.09,0,0,1-1-1.63A1.79,1.79,0,0,1,543.9,964a2.2,2.2,0,0,1,1.25.53,8.2,8.2,0,0,0,4.25,1.37c2.09,0,3.57-.84,3.57-2.51s-1.48-2.13-3.84-2.66c-3.72-.84-6.54-2.05-6.54-5.85s3-5.93,7.18-5.93a8.89,8.89,0,0,1,5.17,1.48c.8.57,1.14,1.1,1.14,1.63a1.71,1.71,0,0,1-1.56,1.75,2.4,2.4,0,0,1-1.37-.53,5.85,5.85,0,0,0-3.61-1.14c-2.43,0-3.46,1.29-3.46,2.47,0,2.09,2.13,2.54,4.64,3.08,3.23.72,5.74,1.9,5.74,5.51C556.47,966.62,553.62,969.13,549.33,969.13Z"/><path class="cls-10" d="M574.07,960.32H563.12c.3,3.57,2.43,5.62,5.47,5.62a6.73,6.73,0,0,0,3.8-1.1,3,3,0,0,1,1.44-.61,1.74,1.74,0,0,1,1.56,1.63c0,.65-.3,1.14-1.52,1.86a9.86,9.86,0,0,1-5.36,1.41c-5.74,0-9-4.07-9-9.92,0-5.66,3-10.22,8.78-10.22,4.94,0,7.9,3.57,7.9,8.74C576.23,959.14,575.78,960.32,574.07,960.32Zm-10.87-3.08h9.54c-.08-2.66-1.52-5.05-4.45-5.05S563.5,954.43,563.2,957.24Z"/><path class="cls-10" d="M594.13,969c-1,0-1.79-.34-1.79-1.44v-1.22a5.87,5.87,0,0,1-5.32,2.81c-4.86,0-8-3.76-8-10,0-6,3.15-10.11,8.21-10.11a5.68,5.68,0,0,1,5.09,2.7v-9.92c0-1.14.68-1.52,1.75-1.52s1.71.38,1.71,1.52v25.68C595.8,968.64,595.19,969,594.13,969Zm-1.79-11.59c0-2.89-1.75-5.21-4.71-5.21-3.27,0-5.09,3-5.09,6.92,0,4.29,1.9,6.84,5.09,6.84s4.71-2.51,4.71-5.21Z"/><path class="cls-10" d="M561.22,608.68c-7.75,0-11.32-6.57-11.32-13.34,0-7.1,3.84-13.26,11.32-13.26,7.67,0,11.21,6.46,11.21,13.26S568.93,608.68,561.22,608.68Zm0-23.29c-5.47,0-7.79,5.21-7.79,10,0,4.9,2.39,10,7.79,10s7.67-5.28,7.67-10S566.65,585.39,561.22,585.39Z"/><path class="cls-10" d="M586,580.26a1.65,1.65,0,0,1,1.06,1.37c0,.68-.46,1.67-1.29,1.67a2,2,0,0,1-.65-.15,4.9,4.9,0,0,0-1.44-.3c-1.52,0-2.54.84-2.54,3.53v2.55h2.7c1.14,0,1.56.42,1.56,1.48s-.42,1.52-1.56,1.52h-2.7V607c0,1.1-.61,1.52-1.71,1.52s-1.75-.42-1.75-1.52V591.93h-1.6c-1.18,0-1.63-.46-1.63-1.52s.46-1.48,1.63-1.48h1.6v-2.47c0-4.48,2.09-6.65,6-6.65A5.39,5.39,0,0,1,586,580.26Z"/><path class="cls-10" d="M597.47,580.26a1.65,1.65,0,0,1,1.06,1.37c0,.68-.46,1.67-1.29,1.67a2,2,0,0,1-.65-.15,4.9,4.9,0,0,0-1.44-.3c-1.52,0-2.54.84-2.54,3.53v2.55h2.7c1.14,0,1.56.42,1.56,1.48s-.42,1.52-1.56,1.52h-2.7V607c0,1.1-.61,1.52-1.71,1.52s-1.75-.42-1.75-1.52V591.93h-1.6c-1.18,0-1.63-.46-1.63-1.52s.46-1.48,1.63-1.48h1.6v-2.47c0-4.48,2.09-6.65,6-6.65A5.39,5.39,0,0,1,597.47,580.26Z"/><path class="cls-10" d="M495,726.59a1.91,1.91,0,0,1-2.17,2.09,2.3,2.3,0,0,1-2.09-1.29l-11.66-19.53v19.26c0,1.14-.57,1.56-1.67,1.56s-1.71-.42-1.71-1.56V704.86c0-1.63.76-2.47,2.28-2.47a2.27,2.27,0,0,1,2.17,1.29l11.47,19.38V704c0-1.18.57-1.6,1.67-1.6s1.71.42,1.71,1.6Z"/><path class="cls-10" d="M508.56,728.83c-5.17,0-8.82-4-8.82-10.07,0-6.27,3.61-10.07,8.82-10.07,5.39,0,8.85,4,8.85,10.07S513.8,728.83,508.56,728.83Zm0-16.95c-3.5,0-5.36,2.7-5.36,6.88,0,4,1.94,6.88,5.32,6.88s5.36-2.77,5.36-6.88S512,711.89,508.59,711.89Z"/><path class="cls-10" d="M529.49,712.08h-3.38V723c0,1.29.38,2.58,1.9,2.58a5.21,5.21,0,0,0,1.86-.49,2.22,2.22,0,0,1,.49-.08c.76,0,1.33.87,1.33,1.67s-.53,1.18-1.25,1.56a6.91,6.91,0,0,1-2.81.61c-3.34,0-5-1.75-5-5.7V712.08h-1.06c-1.63,0-2.13-.15-2.13-1.52,0-1.1.34-1.48,1.56-1.48h1.63v-4.14c0-1.14.57-1.52,1.75-1.52s1.75.38,1.75,1.52v4.14h3.38c1.14,0,1.48.42,1.48,1.48S530.56,712.08,529.49,712.08Z"/><path class="cls-10" d="M556.93,706h-8.74a.66.66,0,0,0-.65.72v6.88h7.79c1.37,0,1.82.49,1.82,1.67s-.46,1.67-1.82,1.67h-7.79v10.18c0,1.1-.61,1.6-1.75,1.6s-1.79-.46-1.79-1.6v-21.2a3,3,0,0,1,3.31-3.27h9.61c1.41,0,1.82.46,1.82,1.63S558.37,706,556.93,706Z"/><path class="cls-10" d="M576.27,728.68c-1.06,0-1.71-.38-1.71-1.52v-1.52a6.43,6.43,0,0,1-5.81,3.19c-4.14,0-6.46-3-6.46-7.22V710.37c0-1.1.65-1.52,1.71-1.52s1.75.34,1.75,1.52v10.87c0,2.51,1.29,4.41,3.91,4.41,3,0,4.9-2.05,4.9-5.89v-9.38c0-1.14.68-1.52,1.79-1.52s1.71.38,1.71,1.52v16.79C578.06,728.3,577.37,728.68,576.27,728.68Z"/><path class="cls-10" d="M586.95,727.16c0,1.1-.68,1.52-1.75,1.52s-1.71-.42-1.71-1.52V701.44c0-1.14.65-1.48,1.71-1.48s1.75.34,1.75,1.48Z"/><path class="cls-10" d="M595.84,727.16c0,1.1-.68,1.52-1.75,1.52s-1.71-.42-1.71-1.52V701.44c0-1.14.65-1.48,1.71-1.48s1.75.34,1.75,1.48Z"/><path class="cls-10" d="M487,848.91a1.25,1.25,0,0,1-1.29-.95c-3-7.75-5.21-10.41-8.44-10.41h-1.6v9.73c0,1.14-.57,1.56-1.75,1.56s-1.79-.42-1.79-1.56V826a3,3,0,0,1,3.31-3.27h4.45c5.78,0,8.51,2.58,8.51,7a6.86,6.86,0,0,1-6.08,6.76c2.81,1.22,4.37,4.1,6.57,9.69a2.69,2.69,0,0,1,.3,1.1C489.18,848.18,488.3,848.91,487,848.91ZM479.87,826H476.3a.68.68,0,0,0-.65.72v7.52h4c3.42,0,5.21-1.6,5.21-4.22S483.36,826,479.87,826Z"/><path class="cls-10" d="M506.35,840.17H495.41c.3,3.57,2.43,5.62,5.47,5.62a6.74,6.74,0,0,0,3.8-1.1,2.94,2.94,0,0,1,1.44-.61,1.74,1.74,0,0,1,1.56,1.63c0,.65-.3,1.14-1.52,1.86A9.86,9.86,0,0,1,500.8,849c-5.74,0-9-4.07-9-9.92,0-5.66,3-10.22,8.78-10.22,4.94,0,7.9,3.57,7.9,8.74C508.52,839,508.06,840.17,506.35,840.17Zm-10.87-3.08H505c-.08-2.66-1.52-5.05-4.45-5.05S495.79,834.28,495.49,837.09Z"/><path class="cls-10" d="M521.36,849a5.6,5.6,0,0,1-5.32-2.85v9c0,1.1-.8,1.44-1.82,1.44s-1.63-.34-1.63-1.52V830.52c0-1.14.65-1.52,1.71-1.52s1.75.46,1.75,1.52v1a5.8,5.8,0,0,1,5.09-2.62c5.05,0,8.17,3.8,8.17,10C529.3,845.14,526.11,849,521.36,849ZM520.75,832c-3,0-4.71,2.32-4.71,5.17v3.42c0,2.74,1.63,5.17,4.71,5.17s5.05-2.62,5.05-7C525.81,834.81,524.06,832,520.75,832Z"/><path class="cls-10" d="M537,847.31c0,1.1-.68,1.52-1.75,1.52s-1.71-.42-1.71-1.52V821.59c0-1.14.65-1.48,1.71-1.48s1.75.34,1.75,1.48Z"/><path class="cls-10" d="M556.21,848.83c-1,0-1.71-.34-1.71-1.44V846a5.87,5.87,0,0,1-5.47,3c-5,0-7.83-4.14-7.83-10.11,0-5.7,2.85-10,8.17-10a5.72,5.72,0,0,1,5.13,2.7v-1c0-1.14.65-1.52,1.75-1.52s1.71.38,1.71,1.52v16.79C558,848.49,557.35,848.83,556.21,848.83Zm-1.71-11.59c0-2.89-1.75-5.21-4.71-5.21-3.57,0-5.09,3.27-5.09,6.84,0,3.88,1.52,6.92,5.09,6.92,3.08,0,4.71-2.43,4.71-5.21Z"/><path class="cls-10" d="M577.87,832.3a1.8,1.8,0,0,1-1.63,1.71,2,2,0,0,1-1.37-.65,6.25,6.25,0,0,0-3.8-1.33c-3.08,0-5.39,2.32-5.39,6.84s2.28,6.92,5.36,6.92a6.24,6.24,0,0,0,3.88-1.41,2.17,2.17,0,0,1,1.33-.57,1.76,1.76,0,0,1,1.67,1.63,2.41,2.41,0,0,1-1,1.63A9.32,9.32,0,0,1,571,849c-5.24,0-8.78-4.07-8.78-10.11,0-6.42,3.91-10,9-10a8.29,8.29,0,0,1,6.12,2.24A1.62,1.62,0,0,1,577.87,832.3Z"/><path class="cls-10" d="M595,840.17H584.1c.3,3.57,2.43,5.62,5.47,5.62a6.74,6.74,0,0,0,3.8-1.1,2.94,2.94,0,0,1,1.44-.61,1.74,1.74,0,0,1,1.56,1.63c0,.65-.3,1.14-1.52,1.86a9.86,9.86,0,0,1-5.36,1.41c-5.74,0-9-4.07-9-9.92,0-5.66,3-10.22,8.78-10.22,4.94,0,7.9,3.57,7.9,8.74C597.21,839,596.75,840.17,595,840.17Zm-10.87-3.08h9.54c-.08-2.66-1.52-5.05-4.45-5.05S584.48,834.28,584.17,837.09Z"/><path class="cls-11" d="M60.92,207.08c-1.22,0-1.75-.46-1.75-1.6V195.26H47.51v10.22c0,1.14-.61,1.6-1.79,1.6s-1.75-.46-1.75-1.6V182.35c0-1.18.57-1.56,1.75-1.56s1.79.38,1.79,1.56V192H59.18v-9.61c0-1.18.53-1.56,1.75-1.56s1.79.38,1.79,1.56v23.14C62.71,206.62,62.1,207.08,60.92,207.08Z"/><path class="cls-11" d="M76.24,207.23c-5.17,0-8.82-4-8.82-10.07,0-6.27,3.61-10.07,8.82-10.07,5.39,0,8.85,4,8.85,10.07S81.48,207.23,76.24,207.23Zm0-16.95c-3.5,0-5.36,2.7-5.36,6.88,0,4,1.94,6.88,5.32,6.88s5.36-2.77,5.36-6.88S79.7,190.29,76.28,190.29Z"/><path class="cls-11" d="M97.18,190.48H93.79v10.9c0,1.29.38,2.58,1.9,2.58a5.21,5.21,0,0,0,1.86-.49,2.17,2.17,0,0,1,.49-.08c.76,0,1.33.87,1.33,1.67s-.53,1.18-1.25,1.56a6.89,6.89,0,0,1-2.81.61c-3.34,0-5-1.75-5-5.7V190.48H89.24c-1.63,0-2.13-.15-2.13-1.52,0-1.1.34-1.48,1.56-1.48H90.3v-4.14c0-1.14.57-1.52,1.75-1.52s1.75.38,1.75,1.52v4.14h3.38c1.14,0,1.48.42,1.48,1.48S98.24,190.48,97.18,190.48Z"/><path class="cls-11" d="M140.08,191.16a82.46,82.46,0,0,1-5.55,14.78,1.79,1.79,0,0,1-1.79,1.14A1.64,1.64,0,0,1,131,206c-2.09-4.26-4.1-11.17-5.47-18a84.66,84.66,0,0,1-6.12,18,1.94,1.94,0,0,1-1.79,1,1.78,1.78,0,0,1-1.86-1.18,90.47,90.47,0,0,1-5.05-15.2,45.22,45.22,0,0,1-1.48-8.51c0-1,1.06-1.44,2.17-1.44.84,0,1.22.42,1.33,1.44.34,2.2.76,4.56,1.29,7.18a85.52,85.52,0,0,0,3.76,13.26,87.19,87.19,0,0,0,4.45-13.07c.61-2.32,1.14-4.94,1.63-7.49.19-1,.76-1.33,1.79-1.33s1.63.42,1.79,1.41c.3,2.17.84,4.83,1.44,7.41a93.74,93.74,0,0,0,3.84,13.11,86.08,86.08,0,0,0,4.1-12.2c.68-2.66,1.25-5.43,1.79-8.25.19-1,.61-1.48,1.52-1.48,1.37,0,2.05.53,2.05,1.37C142.16,184,140.95,188.16,140.08,191.16Z"/><path class="cls-11" d="M159.22,207.08c-1,0-1.71-.34-1.71-1.44v-1.41a5.87,5.87,0,0,1-5.47,3c-5,0-7.83-4.14-7.83-10.11,0-5.7,2.85-10,8.17-10a5.72,5.72,0,0,1,5.13,2.7v-1c0-1.14.65-1.52,1.75-1.52s1.71.38,1.71,1.52v16.79C161,206.74,160.36,207.08,159.22,207.08Zm-1.71-11.59c0-2.89-1.75-5.21-4.71-5.21-3.57,0-5.09,3.27-5.09,6.84,0,3.88,1.52,6.92,5.09,6.92,3.08,0,4.71-2.43,4.71-5.21Z"/><path class="cls-11" d="M174.31,190.48h-3.38v10.9c0,1.29.38,2.58,1.9,2.58a5.21,5.21,0,0,0,1.86-.49,2.17,2.17,0,0,1,.49-.08c.76,0,1.33.87,1.33,1.67s-.53,1.18-1.25,1.56a6.89,6.89,0,0,1-2.81.61c-3.34,0-5-1.75-5-5.7V190.48h-1.06c-1.63,0-2.13-.15-2.13-1.52,0-1.1.34-1.48,1.56-1.48h1.63v-4.14c0-1.14.57-1.52,1.75-1.52s1.75.38,1.75,1.52v4.14h3.38c1.14,0,1.48.42,1.48,1.48S175.37,190.48,174.31,190.48Z"/><path class="cls-11" d="M193.07,198.42H182.13c.3,3.57,2.43,5.62,5.47,5.62a6.73,6.73,0,0,0,3.8-1.1,3,3,0,0,1,1.44-.61A1.74,1.74,0,0,1,194.4,204c0,.65-.3,1.14-1.52,1.86a9.86,9.86,0,0,1-5.36,1.41c-5.74,0-9-4.07-9-9.92,0-5.66,3-10.22,8.78-10.22,4.94,0,7.9,3.57,7.9,8.74C195.24,197.24,194.78,198.42,193.07,198.42Zm-10.87-3.08h9.54c-.08-2.66-1.52-5.05-4.45-5.05S182.51,192.53,182.21,195.34Z"/><path class="cls-11" d="M209.07,190.7a2.44,2.44,0,0,1-.76-.11,4.38,4.38,0,0,0-1.29-.23c-2.47,0-4.25,2-4.25,5.55v9.61c0,1.18-.61,1.56-1.75,1.56-1,0-1.71-.38-1.71-1.56V188.73c0-1.14.65-1.48,1.75-1.48s1.71.34,1.71,1.48v1.18a5,5,0,0,1,4.63-2.81,4.7,4.7,0,0,1,2.13.42,1.38,1.38,0,0,1,.84,1.29C210.36,189.94,209.72,190.7,209.07,190.7Z"/><path class="cls-11" d="M58.83,1089.21a1.25,1.25,0,0,1-1.29-.95c-3-7.75-5.21-10.41-8.44-10.41h-1.6v9.73c0,1.14-.57,1.56-1.75,1.56s-1.79-.42-1.79-1.56v-21.24a3,3,0,0,1,3.31-3.27h4.45c5.78,0,8.51,2.58,8.51,7a6.86,6.86,0,0,1-6.08,6.76c2.81,1.21,4.37,4.1,6.57,9.69a2.69,2.69,0,0,1,.3,1.1C61,1088.48,60.16,1089.21,58.83,1089.21Zm-7.1-22.91H48.16a.68.68,0,0,0-.65.72v7.52h4c3.42,0,5.21-1.6,5.21-4.22S55.22,1066.3,51.73,1066.3Z"/><path class="cls-11" d="M78.21,1080.47H67.27c.3,3.57,2.43,5.62,5.47,5.62a6.74,6.74,0,0,0,3.8-1.1,2.93,2.93,0,0,1,1.44-.61,1.74,1.74,0,0,1,1.56,1.63c0,.65-.3,1.14-1.52,1.86a9.86,9.86,0,0,1-5.36,1.41c-5.74,0-9-4.07-9-9.92,0-5.66,3-10.22,8.78-10.22,4.94,0,7.9,3.57,7.9,8.74C80.38,1079.29,79.92,1080.47,78.21,1080.47Zm-10.87-3.08h9.54c-.08-2.66-1.52-5.05-4.45-5.05S67.65,1074.58,67.34,1077.39Z"/><path class="cls-11" d="M93.6,1060.86a1.65,1.65,0,0,1,1.06,1.37c0,.68-.46,1.67-1.29,1.67a2,2,0,0,1-.65-.15,4.93,4.93,0,0,0-1.44-.3c-1.52,0-2.54.84-2.54,3.53v2.55h2.7c1.14,0,1.56.42,1.56,1.48s-.42,1.52-1.56,1.52h-2.7v15.08c0,1.1-.61,1.52-1.71,1.52s-1.75-.42-1.75-1.52v-15.08h-1.6c-1.18,0-1.63-.46-1.63-1.52s.46-1.48,1.63-1.48h1.6v-2.47c0-4.48,2.09-6.65,6-6.65A5.37,5.37,0,0,1,93.6,1060.86Z"/><path class="cls-11" d="M105.65,1072.76a2.44,2.44,0,0,1-.76-.11,4.35,4.35,0,0,0-1.29-.23c-2.47,0-4.25,2-4.25,5.55v9.61c0,1.18-.61,1.56-1.75,1.56-1,0-1.71-.38-1.71-1.56v-16.79c0-1.14.65-1.48,1.75-1.48s1.71.34,1.71,1.48V1072a5,5,0,0,1,4.63-2.81,4.7,4.7,0,0,1,2.13.42,1.38,1.38,0,0,1,.84,1.29C106.94,1072,106.29,1072.76,105.65,1072.76Z"/><path class="cls-11" d="M111.65,1065.65a2,2,0,0,1-2-2.05,2,2,0,1,1,2,2.05Zm0,23.48c-1.06,0-1.67-.42-1.67-1.52v-16.83c0-1.14.65-1.48,1.71-1.48s1.75.34,1.75,1.48v16.83C113.4,1088.71,112.71,1089.13,111.61,1089.13Z"/><path class="cls-11" d="M134.33,1087.16c0,6.12-3,9.76-9,9.76a10,10,0,0,1-5.43-1.44c-.8-.57-1.1-1.06-1.1-1.6a1.72,1.72,0,0,1,1.48-1.79,3.46,3.46,0,0,1,1.48.53,7.54,7.54,0,0,0,3.72,1.1c4.48,0,5.36-3,5.4-6.8v-.65a5.83,5.83,0,0,1-5.43,3c-4.64,0-7.87-3.72-7.87-10.11,0-6.12,3.15-10,8.21-10a5.78,5.78,0,0,1,5.09,2.7v-1c0-1.14.68-1.52,1.75-1.52s1.71.42,1.71,1.52Zm-3.46-9.61c0-2.89-1.75-5.21-4.71-5.21-3.27,0-5.09,2.77-5.09,6.84,0,4.29,1.9,6.92,5.09,6.92s4.71-2.47,4.71-5.21Z"/><path class="cls-11" d="M153.11,1080.47H142.16c.3,3.57,2.43,5.62,5.47,5.62a6.74,6.74,0,0,0,3.8-1.1,2.93,2.93,0,0,1,1.44-.61,1.74,1.74,0,0,1,1.56,1.63c0,.65-.3,1.14-1.52,1.86a9.86,9.86,0,0,1-5.36,1.41c-5.74,0-9-4.07-9-9.92,0-5.66,3-10.22,8.78-10.22,4.94,0,7.9,3.57,7.9,8.74C155.27,1079.29,154.82,1080.47,153.11,1080.47Zm-10.87-3.08h9.54c-.08-2.66-1.52-5.05-4.45-5.05S142.54,1074.58,142.24,1077.39Z"/><path class="cls-11" d="M169.11,1072.76a2.44,2.44,0,0,1-.76-.11,4.35,4.35,0,0,0-1.29-.23c-2.47,0-4.25,2-4.25,5.55v9.61c0,1.18-.61,1.56-1.75,1.56-1,0-1.71-.38-1.71-1.56v-16.79c0-1.14.65-1.48,1.75-1.48s1.71.34,1.71,1.48V1072a5,5,0,0,1,4.63-2.81,4.7,4.7,0,0,1,2.13.42,1.38,1.38,0,0,1,.84,1.29C170.4,1072,169.75,1072.76,169.11,1072.76Z"/><path class="cls-11" d="M187.15,1089.13c-1,0-1.71-.34-1.71-1.44v-1.41a5.87,5.87,0,0,1-5.47,3c-5,0-7.83-4.14-7.83-10.11,0-5.7,2.85-10,8.17-10a5.72,5.72,0,0,1,5.13,2.7v-1c0-1.14.65-1.52,1.75-1.52s1.71.38,1.71,1.52v16.79C188.9,1088.79,188.29,1089.13,187.15,1089.13Zm-1.71-11.59c0-2.89-1.75-5.21-4.71-5.21-3.57,0-5.09,3.27-5.09,6.84,0,3.88,1.52,6.92,5.09,6.92,3.08,0,4.71-2.43,4.71-5.21Z"/><path class="cls-11" d="M202.24,1072.53h-3.38v10.9c0,1.29.38,2.58,1.9,2.58a5.19,5.19,0,0,0,1.86-.49,2.28,2.28,0,0,1,.49-.08c.76,0,1.33.88,1.33,1.67s-.53,1.18-1.25,1.56a6.92,6.92,0,0,1-2.81.61c-3.34,0-5-1.75-5-5.7v-11.06H194.3c-1.63,0-2.13-.15-2.13-1.52,0-1.1.34-1.48,1.56-1.48h1.63v-4.14c0-1.14.57-1.52,1.75-1.52s1.75.38,1.75,1.52v4.14h3.38c1.14,0,1.48.42,1.48,1.48S203.3,1072.53,202.24,1072.53Z"/><path class="cls-11" d="M215.27,1089.28c-5.17,0-8.82-4-8.82-10.07,0-6.27,3.61-10.07,8.82-10.07,5.39,0,8.85,4,8.85,10.07S220.51,1089.28,215.27,1089.28Zm0-16.95c-3.5,0-5.36,2.7-5.36,6.88,0,4,1.94,6.88,5.32,6.88s5.36-2.77,5.36-6.88S218.73,1072.34,215.31,1072.34Z"/><path class="cls-11" d="M238.11,1072.76a2.44,2.44,0,0,1-.76-.11,4.35,4.35,0,0,0-1.29-.23c-2.47,0-4.25,2-4.25,5.55v9.61c0,1.18-.61,1.56-1.75,1.56-1,0-1.71-.38-1.71-1.56v-16.79c0-1.14.65-1.48,1.75-1.48s1.71.34,1.71,1.48V1072a5,5,0,0,1,4.63-2.81,4.7,4.7,0,0,1,2.13.42,1.38,1.38,0,0,1,.84,1.29C239.4,1072,238.75,1072.76,238.11,1072.76Z"/><path class="cls-11" d="M396.07,1066.41h-8.74a.66.66,0,0,0-.65.72V1074h7.79c1.37,0,1.82.49,1.82,1.67s-.46,1.67-1.82,1.67h-7.79v10.18c0,1.1-.61,1.6-1.75,1.6s-1.79-.46-1.79-1.6v-21.2a3,3,0,0,1,3.31-3.27h9.61c1.41,0,1.82.46,1.82,1.63S397.51,1066.41,396.07,1066.41Z"/><path class="cls-11" d="M411.27,1072.75a2.44,2.44,0,0,1-.76-.11,4.38,4.38,0,0,0-1.29-.23c-2.47,0-4.25,2-4.25,5.55v9.61c0,1.18-.61,1.56-1.75,1.56-1,0-1.71-.38-1.71-1.56v-16.79c0-1.14.65-1.48,1.75-1.48s1.71.34,1.71,1.48V1072a5,5,0,0,1,4.63-2.81,4.7,4.7,0,0,1,2.13.42,1.38,1.38,0,0,1,.84,1.29C412.56,1072,411.92,1072.75,411.27,1072.75Z"/><path class="cls-11" d="M428.36,1080.47H417.42c.3,3.57,2.43,5.62,5.47,5.62a6.73,6.73,0,0,0,3.8-1.1,3,3,0,0,1,1.44-.61,1.74,1.74,0,0,1,1.56,1.63c0,.65-.3,1.14-1.52,1.86a9.86,9.86,0,0,1-5.36,1.41c-5.74,0-9-4.07-9-9.92,0-5.66,3-10.22,8.78-10.22,4.94,0,7.9,3.57,7.9,8.74C430.53,1079.29,430.07,1080.47,428.36,1080.47Zm-10.87-3.08H427c-.08-2.66-1.52-5.05-4.45-5.05S417.8,1074.58,417.5,1077.39Z"/><path class="cls-11" d="M447.89,1080.47H437c.3,3.57,2.43,5.62,5.47,5.62a6.73,6.73,0,0,0,3.8-1.1,3,3,0,0,1,1.44-.61,1.74,1.74,0,0,1,1.56,1.63c0,.65-.3,1.14-1.52,1.86a9.86,9.86,0,0,1-5.36,1.41c-5.74,0-9-4.07-9-9.92,0-5.66,3-10.22,8.78-10.22,4.94,0,7.9,3.57,7.9,8.74C450.06,1079.29,449.6,1080.47,447.89,1080.47ZM437,1077.39h9.54c-.08-2.66-1.52-5.05-4.45-5.05S437.33,1074.58,437,1077.39Z"/><path class="cls-11" d="M461.23,1079.59c-2.74,2.43-4.71,4.48-5.51,6.23h9.42c1.14,0,1.75.38,1.75,1.48s-.61,1.6-1.75,1.6H453.79a1.87,1.87,0,0,1-2-2c0-2.28,2.74-5.81,6.84-9.35,2.13-1.82,3.76-3.42,4.45-4.94h-8.62c-1.14,0-1.75-.46-1.75-1.56s.68-1.52,1.75-1.52h10.87c1.29,0,2,.38,2,1.63C467.35,1073.21,464.88,1076.36,461.23,1079.59Z"/><path class="cls-11" d="M484,1080.47H473.05c.3,3.57,2.43,5.62,5.47,5.62a6.73,6.73,0,0,0,3.8-1.1,3,3,0,0,1,1.44-.61,1.74,1.74,0,0,1,1.56,1.63c0,.65-.3,1.14-1.52,1.86a9.86,9.86,0,0,1-5.36,1.41c-5.74,0-9-4.07-9-9.92,0-5.66,3-10.22,8.78-10.22,4.94,0,7.9,3.57,7.9,8.74C486.16,1079.29,485.7,1080.47,484,1080.47Zm-10.87-3.08h9.54c-.08-2.66-1.52-5.05-4.45-5.05S473.43,1074.58,473.13,1077.39Z"/><path class="cls-11" d="M500,1072.75a2.44,2.44,0,0,1-.76-.11,4.38,4.38,0,0,0-1.29-.23c-2.47,0-4.25,2-4.25,5.55v9.61c0,1.18-.61,1.56-1.75,1.56-1,0-1.71-.38-1.71-1.56v-16.79c0-1.14.65-1.48,1.75-1.48s1.71.34,1.71,1.48V1072a5,5,0,0,1,4.63-2.81,4.7,4.7,0,0,1,2.13.42,1.38,1.38,0,0,1,.84,1.29C501.28,1072,500.64,1072.75,500,1072.75Z"/><path class="cls-11" d="M52.18,968.75H47.05A2.74,2.74,0,0,1,44,965.83V946.07a2.86,2.86,0,0,1,3.19-3.15h5c7.79,0,12,5.24,12,12.39C64.15,963.09,60,968.75,52.18,968.75Zm.19-22.49H48.12a.59.59,0,0,0-.61.65v17.93a.51.51,0,0,0,.53.57h4c5.85,0,8.55-4.22,8.55-10C60.62,950.13,58,946.37,52.37,946.26Z"/><path class="cls-11" d="M76.16,969.13c-5.17,0-8.82-4-8.82-10.07,0-6.27,3.61-10.07,8.82-10.07,5.39,0,8.85,4,8.85,10.07S81.41,969.13,76.16,969.13Zm0-16.95c-3.5,0-5.36,2.7-5.36,6.88,0,4,1.94,6.88,5.32,6.88s5.36-2.77,5.36-6.88S79.62,952.19,76.2,952.19Z"/><path class="cls-11" d="M96.8,969.13c-5.17,0-8.82-4-8.82-10.07C88,952.79,91.59,949,96.8,949c5.39,0,8.85,4,8.85,10.07S102,969.13,96.8,969.13Zm0-16.95c-3.5,0-5.36,2.7-5.36,6.88,0,4,1.94,6.88,5.32,6.88s5.36-2.77,5.36-6.88S100.25,952.19,96.83,952.19Z"/><path class="cls-11" d="M119.63,952.6a2.44,2.44,0,0,1-.76-.12,4.38,4.38,0,0,0-1.29-.23c-2.47,0-4.25,2-4.25,5.55v9.61c0,1.18-.61,1.56-1.75,1.56-1,0-1.71-.38-1.71-1.56V950.63c0-1.14.65-1.48,1.75-1.48s1.71.34,1.71,1.48v1.18A5,5,0,0,1,118,949a4.7,4.7,0,0,1,2.13.42,1.38,1.38,0,0,1,.84,1.29C120.93,951.84,120.28,952.6,119.63,952.6Z"/><path class="cls-12" d="M60.92,608.53c-1.22,0-1.75-.46-1.75-1.6V596.71H47.51v10.22c0,1.14-.61,1.6-1.79,1.6s-1.75-.46-1.75-1.6V583.8c0-1.18.57-1.56,1.75-1.56s1.79.38,1.79,1.56v9.61H59.18V583.8c0-1.18.53-1.56,1.75-1.56s1.79.38,1.79,1.56v23.14C62.71,608.07,62.1,608.53,60.92,608.53Z"/><path class="cls-12" d="M76.24,608.68c-5.17,0-8.82-4-8.82-10.07,0-6.27,3.61-10.07,8.82-10.07,5.39,0,8.85,4,8.85,10.07S81.48,608.68,76.24,608.68Zm0-16.95c-3.5,0-5.36,2.7-5.36,6.88,0,4,1.94,6.88,5.32,6.88s5.36-2.77,5.36-6.88S79.7,591.74,76.28,591.74Z"/><path class="cls-12" d="M97.18,591.93H93.79v10.9c0,1.29.38,2.58,1.9,2.58a5.21,5.21,0,0,0,1.86-.49,2.22,2.22,0,0,1,.49-.08c.76,0,1.33.87,1.33,1.67s-.53,1.18-1.25,1.56a6.91,6.91,0,0,1-2.81.61c-3.34,0-5-1.75-5-5.7V591.93H89.24c-1.63,0-2.13-.15-2.13-1.52,0-1.1.34-1.48,1.56-1.48H90.3v-4.14c0-1.14.57-1.52,1.75-1.52s1.75.38,1.75,1.52v4.14h3.38c1.14,0,1.48.42,1.48,1.48S98.24,591.93,97.18,591.93Z"/><path class="cls-12" d="M140.08,592.61a82.45,82.45,0,0,1-5.55,14.78,1.79,1.79,0,0,1-1.79,1.14,1.64,1.64,0,0,1-1.75-1.06c-2.09-4.26-4.1-11.17-5.47-18a84.64,84.64,0,0,1-6.12,18,1.94,1.94,0,0,1-1.79,1,1.78,1.78,0,0,1-1.86-1.18,90.44,90.44,0,0,1-5.05-15.2,45.22,45.22,0,0,1-1.48-8.51c0-1,1.06-1.44,2.17-1.44.84,0,1.22.42,1.33,1.44.34,2.2.76,4.56,1.29,7.18a85.49,85.49,0,0,0,3.76,13.26A87.19,87.19,0,0,0,122.22,591c.61-2.32,1.14-4.94,1.63-7.49.19-.95.76-1.33,1.79-1.33s1.63.42,1.79,1.41c.3,2.17.84,4.83,1.44,7.41a93.8,93.8,0,0,0,3.84,13.11,86.09,86.09,0,0,0,4.1-12.2c.68-2.66,1.25-5.43,1.79-8.25.19-1,.61-1.48,1.52-1.48,1.37,0,2.05.53,2.05,1.37C142.16,585.47,140.95,589.61,140.08,592.61Z"/><path class="cls-12" d="M159.38,608.53c-1,0-1.71-.34-1.71-1.44v-1.41a5.87,5.87,0,0,1-5.47,3c-5,0-7.83-4.14-7.83-10.11,0-5.7,2.85-10,8.17-10a5.72,5.72,0,0,1,5.13,2.7v-1c0-1.14.65-1.52,1.75-1.52s1.71.38,1.71,1.52V607C161.13,608.19,160.52,608.53,159.38,608.53Zm-1.71-11.59c0-2.89-1.75-5.21-4.71-5.21-3.57,0-5.09,3.27-5.09,6.84,0,3.88,1.52,6.91,5.09,6.91,3.08,0,4.71-2.43,4.71-5.21Z"/><path class="cls-12" d="M174.47,591.93h-3.38v10.9c0,1.29.38,2.58,1.9,2.58a5.21,5.21,0,0,0,1.86-.49,2.22,2.22,0,0,1,.49-.08c.76,0,1.33.87,1.33,1.67s-.53,1.18-1.25,1.56a6.92,6.92,0,0,1-2.81.61c-3.34,0-5-1.75-5-5.7V591.93h-1.06c-1.63,0-2.13-.15-2.13-1.52,0-1.1.34-1.48,1.56-1.48h1.63v-4.14c0-1.14.57-1.52,1.75-1.52s1.75.38,1.75,1.52v4.14h3.38c1.14,0,1.48.42,1.48,1.48S175.53,591.93,174.47,591.93Z"/><path class="cls-12" d="M193,599.87H182c.3,3.57,2.43,5.62,5.47,5.62a6.74,6.74,0,0,0,3.8-1.1,2.94,2.94,0,0,1,1.44-.61,1.74,1.74,0,0,1,1.56,1.63c0,.65-.3,1.14-1.52,1.86a9.86,9.86,0,0,1-5.36,1.41c-5.74,0-9-4.06-9-9.92,0-5.66,3-10.22,8.78-10.22,4.94,0,7.9,3.57,7.9,8.74C195.14,598.69,194.68,599.87,193,599.87Zm-10.87-3.08h9.54c-.08-2.66-1.52-5.05-4.45-5.05S182.41,594,182.11,596.79Z"/><path class="cls-12" d="M209,592.15a2.44,2.44,0,0,1-.76-.11,4.35,4.35,0,0,0-1.29-.23c-2.47,0-4.25,2-4.25,5.55V607c0,1.18-.61,1.56-1.75,1.56-1,0-1.71-.38-1.71-1.56V590.18c0-1.14.65-1.48,1.75-1.48s1.71.34,1.71,1.48v1.18a5,5,0,0,1,4.63-2.81,4.7,4.7,0,0,1,2.13.42,1.38,1.38,0,0,1,.84,1.29C210.26,591.39,209.62,592.15,209,592.15Z"/><path class="cls-12" d="M228.84,608.68a11.39,11.39,0,0,1-7.29-2.36,2.15,2.15,0,0,1-.8-1.44,1.86,1.86,0,0,1,1.56-1.86,1.94,1.94,0,0,1,1.44.65,8.25,8.25,0,0,0,5.09,1.71c2.66,0,4.63-1.37,4.63-4.14,0-2.09-1.14-3.42-5.17-4.6-5.78-1.71-7.11-3.65-7.11-7.29,0-4.52,3.5-7.26,7.87-7.26a11.16,11.16,0,0,1,6.27,1.82,2.61,2.61,0,0,1,1.33,2,1.85,1.85,0,0,1-1.63,1.82,4.32,4.32,0,0,1-1.75-.87,7.38,7.38,0,0,0-4.1-1.48c-2.89,0-4.45,1.56-4.45,3.84,0,1.94.8,3,4.67,4.18,5.74,1.71,7.6,4,7.6,7.75C237,606,233.37,608.68,228.84,608.68Z"/><path class="cls-12" d="M255.78,592a1.8,1.8,0,0,1-1.63,1.71,2,2,0,0,1-1.37-.65,6.25,6.25,0,0,0-3.8-1.33c-3.08,0-5.39,2.32-5.39,6.84s2.28,6.91,5.36,6.91a6.24,6.24,0,0,0,3.88-1.41,2.17,2.17,0,0,1,1.33-.57,1.76,1.76,0,0,1,1.67,1.63,2.41,2.41,0,0,1-1,1.63,9.32,9.32,0,0,1-5.93,1.9c-5.24,0-8.78-4.06-8.78-10.11,0-6.42,3.91-10,9-10a8.29,8.29,0,0,1,6.12,2.24A1.62,1.62,0,0,1,255.78,592Z"/><path class="cls-12" d="M273.72,608.53c-1.1,0-1.79-.38-1.79-1.56V596.18c0-2.28-1-4.37-3.87-4.37s-4.94,2.2-4.94,5.93V607c0,1.14-.68,1.56-1.75,1.56s-1.71-.42-1.71-1.56V581.33c0-1.14.65-1.52,1.75-1.52s1.71.38,1.71,1.52V591.7a6.58,6.58,0,0,1,5.77-3.15c4.29,0,6.54,2.93,6.54,7V607C275.43,608.11,274.78,608.53,273.72,608.53Z"/><path class="cls-12" d="M294.09,599.87H283.15c.3,3.57,2.43,5.62,5.47,5.62a6.74,6.74,0,0,0,3.8-1.1,2.94,2.94,0,0,1,1.44-.61,1.74,1.74,0,0,1,1.56,1.63c0,.65-.3,1.14-1.52,1.86a9.86,9.86,0,0,1-5.36,1.41c-5.74,0-9-4.06-9-9.92,0-5.66,3-10.22,8.78-10.22,4.94,0,7.9,3.57,7.9,8.74C296.25,598.69,295.8,599.87,294.09,599.87Zm-10.87-3.08h9.54c-.08-2.66-1.52-5.05-4.45-5.05S283.53,594,283.22,596.79Z"/><path class="cls-12" d="M314.15,608.53c-1,0-1.79-.34-1.79-1.44v-1.21a5.87,5.87,0,0,1-5.32,2.81c-4.86,0-8-3.76-8-10,0-6,3.15-10.11,8.21-10.11a5.68,5.68,0,0,1,5.09,2.7v-9.92c0-1.14.68-1.52,1.75-1.52s1.71.38,1.71,1.52V607C315.82,608.19,315.22,608.53,314.15,608.53Zm-1.79-11.59c0-2.89-1.75-5.21-4.71-5.21-3.27,0-5.09,3-5.09,6.92,0,4.29,1.9,6.84,5.09,6.84s4.71-2.51,4.71-5.21Z"/><path class="cls-12" d="M335.2,608.53c-1.06,0-1.71-.38-1.71-1.52v-1.52a6.43,6.43,0,0,1-5.81,3.19c-4.14,0-6.46-3-6.46-7.22V590.22c0-1.1.65-1.52,1.71-1.52s1.75.34,1.75,1.52v10.87c0,2.51,1.29,4.41,3.91,4.41,3,0,4.9-2.05,4.9-5.89v-9.38c0-1.14.68-1.52,1.79-1.52s1.71.38,1.71,1.52V607C337,608.15,336.31,608.53,335.2,608.53Z"/><path class="cls-12" d="M345.88,607c0,1.1-.68,1.52-1.75,1.52s-1.71-.42-1.71-1.52V581.29c0-1.14.65-1.48,1.71-1.48s1.75.34,1.75,1.48Z"/><path class="cls-12" d="M364.62,599.87H353.67c.3,3.57,2.43,5.62,5.47,5.62a6.74,6.74,0,0,0,3.8-1.1,2.94,2.94,0,0,1,1.44-.61,1.74,1.74,0,0,1,1.56,1.63c0,.65-.3,1.14-1.52,1.86a9.86,9.86,0,0,1-5.36,1.41c-5.74,0-9-4.06-9-9.92,0-5.66,3-10.22,8.78-10.22,4.94,0,7.9,3.57,7.9,8.74C366.78,598.69,366.33,599.87,364.62,599.87Zm-10.87-3.08h9.54c-.08-2.66-1.52-5.05-4.45-5.05S354.05,594,353.75,596.79Z"/><path class="cls-11" d="M45.73,728.68c-1.22,0-1.75-.46-1.75-1.6V703.95c0-1.18.57-1.56,1.75-1.56s1.79.38,1.79,1.56v23.14C47.51,728.22,46.9,728.68,45.73,728.68Z"/><path class="cls-11" d="M67.91,712.15a1.8,1.8,0,0,1-1.63,1.71,2,2,0,0,1-1.37-.65,6.25,6.25,0,0,0-3.8-1.33c-3.08,0-5.39,2.32-5.39,6.84s2.28,6.91,5.36,6.91A6.25,6.25,0,0,0,65,724.23a2.17,2.17,0,0,1,1.33-.57A1.76,1.76,0,0,1,68,725.3a2.41,2.41,0,0,1-1,1.63,9.32,9.32,0,0,1-5.93,1.9c-5.24,0-8.78-4.06-8.78-10.11,0-6.42,3.91-10,9-10a8.29,8.29,0,0,1,6.12,2.24A1.62,1.62,0,0,1,67.91,712.15Z"/><path class="cls-11" d="M85.09,720H74.15c.3,3.57,2.43,5.62,5.47,5.62a6.74,6.74,0,0,0,3.8-1.1,2.94,2.94,0,0,1,1.44-.61,1.74,1.74,0,0,1,1.56,1.63c0,.65-.3,1.14-1.52,1.86a9.86,9.86,0,0,1-5.36,1.41c-5.74,0-9-4.06-9-9.92,0-5.66,3-10.22,8.78-10.22,4.94,0,7.9,3.57,7.9,8.74C87.26,718.84,86.8,720,85.09,720Zm-10.87-3.08h9.54c-.08-2.66-1.52-5.05-4.45-5.05S74.53,714.13,74.22,716.94Z"/><path class="cls-11" d="M123.74,727.12c0,1.14-.53,1.56-1.75,1.56s-1.6-.42-1.6-1.56V707.86h-.08l-6.15,11a2.08,2.08,0,0,1-2,1.29,2,2,0,0,1-2-1.25L104.05,708H104v19.15c0,1.14-.49,1.56-1.63,1.56s-1.71-.42-1.71-1.56V704.78c0-1.41.57-2.39,2.13-2.39a2.27,2.27,0,0,1,2.32,1.48l7.11,12.77,7.14-12.84a2.25,2.25,0,0,1,2.28-1.41c1.56,0,2.13,1,2.13,2.39Z"/><path class="cls-11" d="M143.46,728.68c-1,0-1.71-.34-1.71-1.44v-1.41a5.87,5.87,0,0,1-5.47,3c-5,0-7.83-4.14-7.83-10.11,0-5.7,2.85-10,8.17-10a5.72,5.72,0,0,1,5.13,2.7v-1c0-1.14.65-1.52,1.75-1.52s1.71.38,1.71,1.52v16.79C145.21,728.34,144.6,728.68,143.46,728.68Zm-1.71-11.59c0-2.89-1.75-5.21-4.71-5.21-3.57,0-5.09,3.27-5.09,6.84,0,3.88,1.52,6.91,5.09,6.91,3.08,0,4.71-2.43,4.71-5.21Z"/><path class="cls-11" d="M154.14,717.05a36.17,36.17,0,0,0,7-7.45,1.52,1.52,0,0,1,1.33-.8,1.81,1.81,0,0,1,1.86,1.48,2.4,2.4,0,0,1-.49,1.33,34.88,34.88,0,0,1-5.24,5.74,35.34,35.34,0,0,1,6.31,8.25,3.23,3.23,0,0,1,.49,1.52,1.72,1.72,0,0,1-1.82,1.6c-.83,0-1.14-.38-1.52-1.06a33.64,33.64,0,0,0-6.12-8.36c-.49.38-1.25.91-1.79,1.29v6.54c0,1.14-.68,1.56-1.75,1.56s-1.71-.42-1.71-1.56V701.44c0-1.1.61-1.48,1.71-1.48s1.75.38,1.75,1.48Z"/><path class="cls-11" d="M182.06,720H171.12c.3,3.57,2.43,5.62,5.47,5.62a6.74,6.74,0,0,0,3.8-1.1,2.94,2.94,0,0,1,1.44-.61,1.74,1.74,0,0,1,1.56,1.63c0,.65-.3,1.14-1.52,1.86a9.86,9.86,0,0,1-5.36,1.41c-5.74,0-9-4.06-9-9.92,0-5.66,3-10.22,8.78-10.22,4.94,0,7.9,3.57,7.9,8.74C184.23,718.84,183.77,720,182.06,720Zm-10.87-3.08h9.54c-.08-2.66-1.52-5.05-4.45-5.05S171.5,714.13,171.19,716.94Z"/><path class="cls-11" d="M198.06,712.3a2.44,2.44,0,0,1-.76-.11A4.35,4.35,0,0,0,196,712c-2.47,0-4.25,2-4.25,5.55v9.61c0,1.18-.61,1.56-1.75,1.56-1,0-1.71-.38-1.71-1.56V710.33c0-1.14.65-1.48,1.75-1.48s1.71.34,1.71,1.48v1.18a5,5,0,0,1,4.63-2.81,4.7,4.7,0,0,1,2.13.42,1.38,1.38,0,0,1,.84,1.29C199.35,711.54,198.7,712.3,198.06,712.3Z"/><path class="cls-11" d="M72.36,832.91a82.45,82.45,0,0,1-5.55,14.78A1.79,1.79,0,0,1,65,848.83a1.64,1.64,0,0,1-1.75-1.06c-2.09-4.26-4.1-11.17-5.47-18a84.64,84.64,0,0,1-6.12,18,1.94,1.94,0,0,1-1.79,1A1.78,1.78,0,0,1,48,847.65,90.44,90.44,0,0,1,43,832.45a45.22,45.22,0,0,1-1.48-8.51c0-1,1.06-1.44,2.17-1.44.84,0,1.22.42,1.33,1.44.34,2.2.76,4.56,1.29,7.18a85.49,85.49,0,0,0,3.76,13.26,87.19,87.19,0,0,0,4.45-13.07c.61-2.32,1.14-4.94,1.63-7.49.19-.95.76-1.33,1.79-1.33s1.63.42,1.79,1.41c.3,2.17.84,4.83,1.44,7.41A93.8,93.8,0,0,0,65,844.42a86.09,86.09,0,0,0,4.1-12.2c.68-2.66,1.25-5.43,1.79-8.25.19-1,.61-1.48,1.52-1.48,1.37,0,2.05.53,2.05,1.37C74.45,825.77,73.23,829.91,72.36,832.91Z"/><path class="cls-11" d="M91.51,848.83c-1,0-1.71-.34-1.71-1.44V846a5.87,5.87,0,0,1-5.47,3c-5,0-7.83-4.14-7.83-10.11,0-5.7,2.85-10,8.17-10a5.72,5.72,0,0,1,5.13,2.7v-1c0-1.14.65-1.52,1.75-1.52s1.71.38,1.71,1.52v16.79C93.25,848.49,92.65,848.83,91.51,848.83ZM89.8,837.24c0-2.89-1.75-5.21-4.71-5.21-3.57,0-5.09,3.27-5.09,6.84,0,3.88,1.52,6.91,5.09,6.91,3.08,0,4.71-2.43,4.71-5.21Z"/><path class="cls-11" d="M106.59,832.23h-3.38v10.9c0,1.29.38,2.58,1.9,2.58a5.21,5.21,0,0,0,1.86-.49,2.22,2.22,0,0,1,.49-.08c.76,0,1.33.87,1.33,1.67s-.53,1.18-1.25,1.56a6.92,6.92,0,0,1-2.81.61c-3.34,0-5-1.75-5-5.7V832.23H98.65c-1.63,0-2.13-.15-2.13-1.52,0-1.1.34-1.48,1.56-1.48h1.63v-4.14c0-1.14.57-1.52,1.75-1.52s1.75.38,1.75,1.52v4.14h3.38c1.14,0,1.48.42,1.48,1.48S107.66,832.23,106.59,832.23Z"/><path class="cls-11" d="M125.36,840.17H114.42c.3,3.57,2.43,5.62,5.47,5.62a6.74,6.74,0,0,0,3.8-1.1,2.94,2.94,0,0,1,1.44-.61,1.74,1.74,0,0,1,1.56,1.63c0,.65-.3,1.14-1.52,1.86a9.86,9.86,0,0,1-5.36,1.41c-5.74,0-9-4.06-9-9.92,0-5.66,3-10.22,8.78-10.22,4.94,0,7.9,3.57,7.9,8.74C127.52,839,127.07,840.17,125.36,840.17Zm-10.87-3.08H124c-.08-2.66-1.52-5.05-4.45-5.05S114.8,834.28,114.49,837.09Z"/><path class="cls-11" d="M141.36,832.45a2.44,2.44,0,0,1-.76-.11,4.35,4.35,0,0,0-1.29-.23c-2.47,0-4.25,2-4.25,5.55v9.61c0,1.18-.61,1.56-1.75,1.56-1,0-1.71-.38-1.71-1.56V830.48c0-1.14.65-1.48,1.75-1.48s1.71.34,1.71,1.48v1.18a5,5,0,0,1,4.63-2.81,4.7,4.7,0,0,1,2.13.42,1.38,1.38,0,0,1,.84,1.29C142.65,831.69,142,832.45,141.36,832.45Z"/><path class="cls-11" d="M167.88,826.11h-8.74a.66.66,0,0,0-.65.72v6.88h7.79c1.37,0,1.82.49,1.82,1.67s-.46,1.67-1.82,1.67h-7.79v10.18c0,1.1-.61,1.6-1.75,1.6s-1.79-.46-1.79-1.6V826a3,3,0,0,1,3.31-3.27h9.61c1.41,0,1.82.46,1.82,1.63S169.32,826.11,167.88,826.11Z"/><path class="cls-11" d="M175,825.35a2,2,0,0,1-2-2.05,2,2,0,1,1,2,2.05Zm0,23.48c-1.06,0-1.67-.42-1.67-1.52V830.48c0-1.14.65-1.48,1.71-1.48s1.75.34,1.75,1.48v16.83C176.77,848.41,176.09,848.83,175,848.83Z"/><path class="cls-11" d="M185.66,847.31c0,1.1-.68,1.52-1.75,1.52s-1.71-.42-1.71-1.52V821.59c0-1.14.65-1.48,1.71-1.48s1.75.34,1.75,1.48Z"/><path class="cls-11" d="M199,832.23h-3.38v10.9c0,1.29.38,2.58,1.9,2.58a5.21,5.21,0,0,0,1.86-.49,2.22,2.22,0,0,1,.49-.08c.76,0,1.33.87,1.33,1.67s-.53,1.18-1.25,1.56a6.91,6.91,0,0,1-2.81.61c-3.34,0-5-1.75-5-5.7V832.23H191c-1.63,0-2.13-.15-2.13-1.52,0-1.1.34-1.48,1.56-1.48h1.63v-4.14c0-1.14.57-1.52,1.75-1.52s1.75.38,1.75,1.52v4.14H199c1.14,0,1.48.42,1.48,1.48S200,832.23,199,832.23Z"/><path class="cls-11" d="M217.73,840.17H206.79c.3,3.57,2.43,5.62,5.47,5.62a6.74,6.74,0,0,0,3.8-1.1,2.94,2.94,0,0,1,1.44-.61,1.74,1.74,0,0,1,1.56,1.63c0,.65-.3,1.14-1.52,1.86a9.86,9.86,0,0,1-5.36,1.41c-5.74,0-9-4.06-9-9.92,0-5.66,3-10.22,8.78-10.22,4.94,0,7.9,3.57,7.9,8.74C219.89,839,219.44,840.17,217.73,840.17Zm-10.87-3.08h9.54c-.08-2.66-1.52-5.05-4.45-5.05S207.17,834.28,206.86,837.09Z"/><path class="cls-11" d="M233.73,832.45a2.44,2.44,0,0,1-.76-.11,4.35,4.35,0,0,0-1.29-.23c-2.47,0-4.25,2-4.25,5.55v9.61c0,1.18-.61,1.56-1.75,1.56-1,0-1.71-.38-1.71-1.56V830.48c0-1.14.65-1.48,1.75-1.48s1.71.34,1.71,1.48v1.18a5,5,0,0,1,4.63-2.81,4.7,4.7,0,0,1,2.13.42,1.38,1.38,0,0,1,.84,1.29C235,831.69,234.37,832.45,233.73,832.45Z"/><path class="cls-13" d="M264,1089.28a10.39,10.39,0,0,1-5.28-1.33c-1.06-.65-1.71-1.37-1.71-2a1.85,1.85,0,0,1,1.6-1.82,2.52,2.52,0,0,1,1.52.61,6.19,6.19,0,0,0,3.91,1.37,4.8,4.8,0,0,0,5.05-5c0-3.31-2.05-4.86-5.74-4.86-1,0-1.56-.46-1.56-1.37a3.42,3.42,0,0,1,1-1.86l4.37-5.17a2.49,2.49,0,0,0,.68-1.1.38.38,0,0,0-.42-.42H259c-1.14,0-1.71-.46-1.71-1.56a1.52,1.52,0,0,1,1.71-1.67h9.84c2,0,3.15.87,3.15,2.62a5.12,5.12,0,0,1-1.67,3.27l-4.18,4.64c3.61.53,6.46,2.74,6.46,7.37A8.14,8.14,0,0,1,264,1089.28Z"/><path class="cls-13" d="M292.52,1068.69c-3.61,5.21-7.45,13.34-7.94,19a1.46,1.46,0,0,1-1.63,1.48,1.63,1.63,0,0,1-1.82-1.71c0-4.52,4.79-14.89,8.13-19.91a1.78,1.78,0,0,0,.34-.84c0-.3-.27-.46-.61-.46h-9.31c-1.22,0-1.75-.42-1.75-1.56s.53-1.6,1.75-1.6h11.17a2.54,2.54,0,0,1,2.85,2.62A5.21,5.21,0,0,1,292.52,1068.69Z"/><path class="cls-13" d="M311.1,1073.78a5.59,5.59,0,1,1,5.47-5.58A5.6,5.6,0,0,1,311.1,1073.78Zm0-8.24a2.6,2.6,0,0,0-2.55,2.66,2.56,2.56,0,0,0,2.55,2.62,2.53,2.53,0,0,0,2.51-2.62A2.57,2.57,0,0,0,311.1,1065.54Z"/><path class="cls-13" d="M334,1066.41h-8.74a.66.66,0,0,0-.65.72V1074h7.79c1.37,0,1.82.49,1.82,1.67s-.46,1.67-1.82,1.67h-7.79v10.18c0,1.1-.61,1.6-1.75,1.6s-1.79-.46-1.79-1.6v-21.2a3,3,0,0,1,3.31-3.27H334c1.41,0,1.82.46,1.82,1.63S335.42,1066.41,334,1066.41Z"/><path class="cls-13" d="M547.32,1089.28c-5.4,0-8.74-4.94-8.74-13.3s3.19-13.3,8.74-13.3,8.7,5,8.7,13.3S552.67,1089.28,547.32,1089.28Zm0-23.4c-3.5,0-5.24,3.88-5.24,10.11s1.9,10.11,5.24,10.11,5.21-4,5.21-10.11S550.73,1065.88,547.32,1065.88Z"/><path class="cls-13" d="M573,1073.78a5.59,5.59,0,1,1,5.47-5.58A5.6,5.6,0,0,1,573,1073.78Zm0-8.24a2.6,2.6,0,0,0-2.55,2.66,2.56,2.56,0,0,0,2.55,2.62,2.53,2.53,0,0,0,2.51-2.62A2.57,2.57,0,0,0,573,1065.54Z"/><path class="cls-13" d="M595.84,1066.41H587.1a.66.66,0,0,0-.65.72V1074h7.79c1.37,0,1.82.49,1.82,1.67s-.46,1.67-1.82,1.67h-7.79v10.18c0,1.1-.61,1.6-1.75,1.6s-1.79-.46-1.79-1.6v-21.2a3,3,0,0,1,3.31-3.27h9.61c1.41,0,1.82.46,1.82,1.63S597.28,1066.41,595.84,1066.41Z"/><path class="cls-14" d="M320,498.57c-74.65,0-135.39-60.74-135.39-135.4S245.34,227.78,320,227.78s135.4,60.74,135.4,135.39S394.66,498.57,320,498.57Zm0-265.95c-72,0-130.55,58.57-130.55,130.55S248,493.73,320,493.73A130.7,130.7,0,0,0,450.55,363.18C450.55,291.19,392,232.63,320,232.63Z"/><path class="cls-15" d="M320,498.57c-74.65,0-135.39-60.74-135.39-135.4S245.34,227.78,320,227.78s135.4,60.74,135.4,135.39S394.66,498.57,320,498.57Zm0-265.95c-72,0-130.55,58.57-130.55,130.55S248,493.73,320,493.73A130.7,130.7,0,0,0,450.55,363.18C450.55,291.19,392,232.63,320,232.63Z"/><path class="cls-16" d="M326.49,400.29q-5.85,0-11.68,0l-11.68,0a3.12,3.12,0,0,1-.44,0,1.09,1.09,0,0,1-.7-.4,2.28,2.28,0,0,1-.21-.36c-5.89-12.13-9.42-23.6-10.78-35.07-.37-3.14-.67-6.21-1-9.45l-.29-3.05a.77.77,0,0,1,.25-.63,1.14,1.14,0,0,1,.79-.3h47.91a1.16,1.16,0,0,1,.78.29.78.78,0,0,1,.27.61l-.05,1.08c-.09,1.89-.18,3.68-.35,5.47a109,109,0,0,1-6.39,28.92c-1,2.59-2.13,5.18-3.22,7.68-.67,1.54-1.31,3-1.92,4.45a2.5,2.5,0,0,1-.15.3,1.05,1.05,0,0,1-.8.47l-.31,0ZM315,395.84c2.54,0,4.82,0,7,.06h.12a2.54,2.54,0,0,0,2.66-1.7,110.63,110.63,0,0,0,9.07-32.71c.15-1.25.24-2.53.33-3.76,0-.59.09-1.18.13-1.76l0-.52H295.14l.28,2.58c.14,1.25.27,2.47.4,3.69A105.38,105.38,0,0,0,305,394.54a2.06,2.06,0,0,0,2.17,1.34c2.63,0,5.21,0,7.8,0"/><path class="cls-16" d="M341.32,388.14a1.06,1.06,0,0,1-.55-.16,1,1,0,0,1-.46-1.13c.29-1.18.54-2.07.82-2.91a9.06,9.06,0,0,1,1.79-3.24A43.22,43.22,0,0,0,352,365.5a11.38,11.38,0,0,0,.33-1.13,1.46,1.46,0,0,0,0-.51c0-.08,0-.17,0-.27l0-.45h-6.58a1,1,0,0,1-1-1.12l.21-2.61a1,1,0,0,1,1-1h11.36a1,1,0,0,1,1,1.22A45.13,45.13,0,0,1,342,387.91a1,1,0,0,1-.67.24"/><path class="cls-16" d="M319,346c.92-3.37-.83-6-2.61-8.31a7.69,7.69,0,0,1,1-11.61c-.35,2.84,1.29,4.86,2.92,6.55l1,1c3.1,3.24,3.25,5.42.62,9a38.16,38.16,0,0,1-2.6,3L319,346"/><path class="cls-16" d="M309.7,346c.3-2.25-.8-4-2.15-5.85-2-2.73-1.78-5.31.63-7.68a8,8,0,0,0,2.19,4.62c1.49,1.82,2.11,3.45,1.9,5A6.48,6.48,0,0,1,309.7,346"/></svg>